<svg width="24" height="24" viewBox="0 0 24 24" fill="none" xmlns="http://www.w3.org/2000/svg">
<path d="M0 12C0 5.37258 5.37258 0 12 0C18.6274 0 24 5.37258 24 12C24 18.6274 18.6274 24 12 24C5.37258 24 0 18.6274 0 12Z" fill="white"/>
<path fill-rule="evenodd" clip-rule="evenodd" d="M1.8 12C1.8 17.6333 6.3667 22.2 12 22.2C17.6333 22.2 22.2 17.6333 22.2 12C22.2 6.3667 17.6333 1.8 12 1.8C6.3667 1.8 1.8 6.3667 1.8 12ZM12 0C5.37258 0 0 5.37258 0 12C0 18.6274 5.37258 24 12 24C18.6274 24 24 18.6274 24 12C24 5.37258 18.6274 0 12 0Z" fill="#D5D5D7"/>
<path fill-rule="evenodd" clip-rule="evenodd" d="M17.3925 7.72269C17.7665 8.05001 17.8044 8.61859 17.4771 8.99267L11.4771 15.8498C11.3156 16.0344 11.0857 16.1451 10.8407 16.1562C10.5957 16.1674 10.3567 16.078 10.1791 15.9089L6.57912 12.4803C6.21918 12.1375 6.20528 11.5678 6.54808 11.2079C6.89088 10.848 7.46056 10.8341 7.8205 11.1769L10.7407 13.958L16.1225 7.80736C16.4498 7.43329 17.0184 7.39538 17.3925 7.72269Z" fill="#D5D5D7"/>
</svg>
