<svg width="234" height="124" viewBox="0 0 234 124" fill="none" xmlns="http://www.w3.org/2000/svg">
<path d="M73 53.6525C73 51.8758 73.8545 50.2076 75.2962 49.1695L113.966 21.3244C115.894 19.9361 118.494 19.936 120.422 21.3244L159.092 49.1695C160.534 50.2076 161.389 51.8758 161.389 53.6525V99.1023C161.389 102.153 158.915 104.627 155.864 104.627H78.5243C75.4733 104.627 73 102.153 73 99.1023V53.6525Z" fill="url(#paint0_linear_2751_2819)"/>
<rect x="83.4063" y="48.4438" width="45.3006" height="57.2104" rx="2.76215" transform="rotate(-16.9451 83.4063 48.4438)" fill="#FBFCFC"/>
<path fill-rule="evenodd" clip-rule="evenodd" d="M161.389 54.6543L117.54 82.3961L73 54.2174V98.969C73 102.02 75.4733 104.493 78.5243 104.493H155.864C158.915 104.493 161.389 102.02 161.389 98.969V54.6543Z" fill="url(#paint1_linear_2751_2819)"/>
<defs>
<linearGradient id="paint0_linear_2751_2819" x1="115.813" y1="23.593" x2="116.775" y2="70.4662" gradientUnits="userSpaceOnUse">
<stop stop-color="#66E3FF"/>
<stop offset="1" stop-color="#26BDEB"/>
</linearGradient>
<linearGradient id="paint1_linear_2751_2819" x1="91.2024" y1="49.4036" x2="149.504" y2="103.411" gradientUnits="userSpaceOnUse">
<stop stop-color="#B1F1FF"/>
<stop offset="1" stop-color="#65DBFF"/>
</linearGradient>
</defs>
</svg>
