<svg width="234" height="124" viewBox="0 0 234 124" fill="none" xmlns="http://www.w3.org/2000/svg">
<path d="M65.262 74.3323C64.4617 72.7461 64.4732 70.8718 65.2927 69.2955L87.2752 27.0168C88.3713 24.9087 90.6925 23.7376 93.0393 24.1087L140.107 31.5505C141.862 31.828 143.376 32.9325 144.176 34.5187L164.648 75.0966C166.023 77.8205 164.929 81.1428 162.205 82.5171L93.1548 117.354C90.4308 118.728 87.1086 117.634 85.7343 114.91L65.262 74.3323Z" fill="url(#paint0_linear_3592_9664)"/>
<rect x="72.2047" y="64.9946" width="45.3006" height="57.2104" rx="2.76215" transform="rotate(-43.7168 72.2047 64.9946)" fill="#FBFCFC"/>
<path fill-rule="evenodd" clip-rule="evenodd" d="M144.628 35.4172L118.101 80.187L65.5157 74.8379L85.9013 115.244C87.2756 117.968 90.5979 119.062 93.3218 117.688L162.372 82.8508C165.096 81.4765 166.19 78.1543 164.815 75.4303L144.628 35.4172Z" fill="#FF6259"/>
<path d="M18.8501 63.6601C20.0711 56.8031 29.3614 46.7632 39.6904 45.6714C47.6159 44.8335 55.4858 50.6135 49.5962 56.3491C48.9707 56.9582 46.8785 58.9468 45.7687 57.7624C43.8004 55.6617 47.2682 52.2336 48.692 51.2371C54.3505 47.2763 62.1331 46.2651 68.5564 48.4955" stroke="#303031" stroke-width="2" stroke-linecap="round"/>
<path d="M61.4805 33.323C65.6477 34.2429 69.3177 38.4928 71.5844 41.9388" stroke="#303031" stroke-width="2" stroke-linecap="round"/>
<defs>
<linearGradient id="paint0_linear_3592_9664" x1="89.1103" y1="23.4875" x2="127.68" y2="99.9355" gradientUnits="userSpaceOnUse">
<stop stop-color="#F62E21"/>
<stop offset="0.64739" stop-color="#DC2519"/>
</linearGradient>
</defs>
</svg>
