<svg width="164" height="164" viewBox="0 0 164 164" fill="none" xmlns="http://www.w3.org/2000/svg">
<rect x="0.5" y="0.5" width="163" height="163" rx="7.5" fill="#FBFCFC" stroke="#F4F5F9"/>
<path d="M45.7983 70.7852V71.7373H40.5103V74.4033H39.353V71.7373H33.8745V70.7852H45.7983ZM35.2222 67.123C35.2148 65.5044 37.0386 64.5083 39.8218 64.501C42.605 64.5083 44.4067 65.5044 44.4067 67.123C44.4067 68.7271 42.605 69.7231 39.8218 69.7158C37.0386 69.7231 35.2148 68.7271 35.2222 67.123ZM35.4126 76.9082V73.0996H36.5698V75.9268H44.4653V76.9082H35.4126ZM36.4526 67.123C36.438 68.1338 37.793 68.7783 39.8218 68.7783C41.8433 68.7783 43.1909 68.1338 43.1909 67.123C43.1909 66.083 41.8433 65.4458 39.8218 65.4385C37.793 65.4458 36.438 66.083 36.4526 67.123ZM58.7329 70.6094V71.5322H46.853V70.6094H52.229V69.0859H48.3618V64.7793H57.2534V65.7021H49.4897V68.1484H57.3413V69.0859H53.3423V70.6094H58.7329ZM48.2886 74.8281C48.2812 73.3413 49.9731 72.4917 52.7856 72.4844C55.5762 72.4917 57.2534 73.3413 57.2681 74.8281C57.2534 76.3296 55.5762 77.1719 52.7856 77.1865C49.9731 77.1719 48.2812 76.3296 48.2886 74.8281ZM49.4604 74.8281C49.4458 75.7437 50.6982 76.271 52.7856 76.2637C54.8511 76.271 56.1035 75.7437 56.1108 74.8281C56.1035 73.9272 54.8511 73.3926 52.7856 73.3926C50.6982 73.3926 49.4458 73.9272 49.4604 74.8281ZM65.7495 64.3984C68.6426 64.3984 70.3418 65.1968 70.3491 66.6396C70.3418 68.1191 68.6426 68.9175 65.7495 68.9248C62.8418 68.9175 61.1353 68.1191 61.1353 66.6396C61.1353 65.1968 62.8418 64.3984 65.7495 64.3984ZM59.8169 70.7412V69.8037H71.6821V70.7412H59.8169ZM61.2524 72.748V71.8691H70.1587V74.7842H62.4243V76.1318H70.5542V77.04H61.2817V73.9346H69.0308V72.748H61.2524ZM62.3364 66.6396C62.3218 67.5479 63.5889 68.0459 65.7495 68.0459C67.9102 68.0459 69.1699 67.5479 69.1772 66.6396C69.1699 65.7827 67.9102 65.27 65.7495 65.2627C63.5889 65.27 62.3218 65.7827 62.3364 66.6396ZM80.9985 66.625C80.9985 68.4414 82.3169 70.1553 84.2212 70.8438L83.5767 71.7373C82.1484 71.1733 81.0059 70.0454 80.4492 68.6245C79.8999 70.1992 78.7134 71.4443 77.1753 72.0596L76.5601 71.1221C78.5156 70.4043 79.8633 68.5806 79.8706 66.5811V64.9697H80.9985V66.625ZM78.9185 76.9082V72.8213H80.0757V75.9414H87.6343V76.9082H78.9185ZM83.2837 68.207V67.2402H86.1841V64.1787H87.3413V73.9346H86.1841V68.207H83.2837ZM95.1489 65.1162V66.083H91.1938V67.709H95.0024V68.6172H91.1938V70.4189C93.0908 70.4116 94.2773 70.3384 95.6763 70.0674L95.7935 71.0195C94.2627 71.3198 93.0322 71.3784 90.9155 71.3857H90.0952V65.1162H95.1489ZM91.7944 73.6855V72.748H100.569V77.1865H99.4409V73.6855H91.7944ZM96.5698 71.9863V64.4277H97.6392V67.5771H99.4702V64.1787H100.569V72.0742H99.4702V68.5146H97.6392V71.9863H96.5698ZM112.654 64.1787V68.4707H114.617V69.4375H112.654V73.9346H111.511V64.1787H112.654ZM102.502 66.7129V65.7754H105.813V64.1787H106.956V65.7754H110.266V66.7129H102.502ZM103.25 69.8623C103.242 68.3828 104.502 67.4307 106.384 67.4307C108.245 67.4307 109.504 68.3828 109.519 69.8623C109.504 71.3271 108.245 72.272 106.384 72.2646C104.502 72.272 103.242 71.3271 103.25 69.8623ZM104.348 69.8623C104.341 70.7778 105.154 71.3711 106.384 71.3564C107.6 71.3711 108.42 70.7778 108.435 69.8623C108.42 68.9321 107.6 68.3315 106.384 68.3389C105.154 68.3315 104.341 68.9321 104.348 69.8623ZM104.509 76.9082V73.1582H105.637V75.9414H113.254V76.9082H104.509ZM130.378 65.6582V66.6104H119.817V65.6582H124.563V64.0908H125.691V65.6582H130.378ZM119.202 73.5537V72.6016H131.125V73.5537H125.691V77.2158H124.563V73.5537H119.202ZM120.886 69.54C120.872 68.1338 122.468 67.3574 125.134 67.3574C127.778 67.3574 129.375 68.1338 129.382 69.54C129.375 70.917 127.778 71.6934 125.134 71.708C122.468 71.6934 120.872 70.917 120.886 69.54ZM122.073 69.54C122.058 70.3457 123.193 70.8218 125.134 70.8145C127.053 70.8218 128.181 70.3457 128.196 69.54C128.181 68.7197 127.053 68.2437 125.134 68.2363C123.193 68.2437 122.058 68.7197 122.073 69.54ZM54.8877 86.1787V95.7002H53.7451V86.1787H54.8877ZM44.4434 90.2803C44.436 88.4053 45.9082 87.0942 47.8564 87.0869C49.8047 87.0942 51.2622 88.4053 51.2695 90.2803C51.2622 92.1772 49.8047 93.4956 47.8564 93.4883C45.9082 93.4956 44.436 92.1772 44.4434 90.2803ZM45.5713 90.2803C45.5566 91.5767 46.5381 92.4775 47.8564 92.4775C49.1528 92.4775 50.1416 91.5767 50.1416 90.2803C50.1416 89.0059 49.1528 88.0977 47.8564 88.0977C46.5381 88.0977 45.5566 89.0059 45.5713 90.2803ZM46.4795 98.9082V94.7334H47.6221V97.9414H55.2979V98.9082H46.4795ZM68.9648 92.3604V93.3125H57.0996V92.3604H68.9648ZM57.7734 90.6611C60.0439 90.3975 62.2339 89.2769 62.2852 87.79H58.1836V86.8379H67.9102V87.79H63.7793C63.8306 89.2622 65.9985 90.3975 68.3057 90.6611L67.8809 91.584C65.7495 91.313 63.75 90.3535 63.0322 88.9106C62.3145 90.3535 60.3296 91.313 58.1836 91.584L57.7734 90.6611ZM58.5352 96.8135C58.5278 95.3193 60.2197 94.4551 63.0322 94.4551C65.8228 94.4551 67.5 95.3193 67.5146 96.8135C67.5 98.3223 65.8228 99.1572 63.0322 99.1572C60.2197 99.1572 58.5278 98.3223 58.5352 96.8135ZM59.707 96.8135C59.6924 97.7217 60.9448 98.2417 63.0322 98.2344C65.0977 98.2417 66.3501 97.7217 66.3574 96.8135C66.3501 95.8979 65.0977 95.3779 63.0322 95.3633C60.9448 95.3779 59.6924 95.8979 59.707 96.8135ZM76.5674 88.4199V89.3574H70.0342V88.4199H72.7441V86.5596H73.8867V88.4199H76.5674ZM70.5029 93.1953C70.5029 91.4668 71.6821 90.2437 73.3008 90.2363C74.9414 90.2437 76.1133 91.4668 76.1279 93.1953C76.1133 94.9458 74.9414 96.1763 73.3008 96.1836C71.6821 96.1763 70.5029 94.9458 70.5029 93.1953ZM71.5283 93.1953C71.5283 94.3525 72.2681 95.1802 73.3008 95.1729C74.3408 95.1802 75.1025 94.3525 75.1025 93.1953C75.1025 92.0527 74.3408 91.2178 73.3008 91.2031C72.2681 91.2178 71.5283 92.0527 71.5283 93.1953ZM77.2412 98.542V86.4863H78.3252V91.6572H80.0537V86.1641H81.1523V99.1865H80.0537V92.6094H78.3252V98.542H77.2412ZM94.9512 96.5645V97.5166H83.0273V96.5645H88.3887V93.752H84.4336V87.0869H85.5908V89.4453H92.3584V87.0869H93.4863V93.752H89.5166V96.5645H94.9512ZM85.5908 92.8145H92.3584V90.3828H85.5908V92.8145ZM99.8584 89.8701C99.8584 91.9429 100.869 94.1768 102.598 95.2021L101.938 96.0957C100.679 95.334 99.7778 93.9424 99.3237 92.353C98.8477 94.0889 97.8809 95.583 96.5771 96.374L95.8447 95.5098C97.6465 94.4551 98.7451 92.1479 98.7451 89.9141V87.3945H99.8584V89.8701ZM101.162 91.8184V90.8369H103.374V86.4424H104.458V98.5273H103.374V91.8184H101.162ZM106.04 99.1865V86.1641H107.153V99.1865H106.04ZM120.879 96.5498V97.5166H108.955V96.5498H111.914V93.0415C110.801 92.4629 110.127 91.5254 110.127 90.3389C110.127 88.3247 112.104 86.999 114.888 86.9844C117.671 86.999 119.648 88.3247 119.648 90.3389C119.648 91.5034 118.997 92.4263 117.92 93.0049V96.5498H120.879ZM111.24 90.3389C111.233 91.7964 112.749 92.7705 114.888 92.7705C117.004 92.7705 118.535 91.7964 118.535 90.3389C118.535 88.8813 117.004 87.9219 114.888 87.9365C112.749 87.9219 111.233 88.8813 111.24 90.3389ZM113.042 96.5498H116.763V93.4517C116.199 93.5981 115.569 93.6787 114.888 93.6787C114.221 93.6787 113.599 93.6055 113.042 93.459V96.5498Z" fill="#9D9EA0"/>
</svg>
