<svg width="244" height="184" viewBox="0 0 244 184" fill="none" xmlns="http://www.w3.org/2000/svg">
<g id="img_home_before">
<g id="Group 1000011842" opacity="0.9">
<path id="Vector 16082" d="M40.4163 128.521C37.5229 134.193 33 137 27.0946 137.827C24.1566 138.238 22.4609 138.073 19.5 138" stroke="#FFC9C7" stroke-width="3.5" stroke-linecap="round"/>
<g id="Group">
<path id="Vector" d="M32.7407 116.239C37.5307 132.569 48.9107 137.109 54.4707 135.479L138.971 110.699L120.761 48.6093C120.631 48.1693 120.201 47.9093 119.811 48.0293L59.3907 65.7493C58.9907 65.8693 58.7707 66.3193 58.9007 66.7593L62.9707 80.6293C63.1407 81.2093 62.8507 81.8093 62.3207 81.9693L46.6207 86.5693C34.7907 90.0393 28.9307 103.229 32.7507 116.249L32.7407 116.239Z" fill="url(#paint0_linear_3722_3906)"/>
<path id="Vector_2" d="M54.0308 135.609L54.7708 138.129C55.1808 139.519 56.5608 140.339 57.8708 139.949L138.101 116.419C139.401 116.039 140.131 114.599 139.721 113.209L138.981 110.689L54.0308 135.599V135.609Z" fill="#FFC9C7"/>
</g>
<g id="Group_2">
<path id="Vector_3" d="M103.614 111.006C103.614 128.026 113.264 135.586 119.044 135.586H207.104V70.8759C207.104 70.4159 206.764 70.0459 206.354 70.0459H143.384C142.964 70.0459 142.634 70.4159 142.634 70.8759V85.3259C142.634 85.9359 142.184 86.4259 141.634 86.4259H125.274C112.944 86.4259 103.604 97.4259 103.604 110.996L103.614 111.006Z" fill="#FFEBEA"/>
<path id="Vector_4" d="M118.584 135.586V138.206C118.584 139.656 119.684 140.826 121.044 140.826H204.654C206.014 140.826 207.114 139.656 207.114 138.206V135.586H118.584Z" fill="#FFC9C7"/>
<path id="Vector_5" d="M101.264 91.6359C102.644 90.9959 104.154 90.7459 105.684 90.7859C106.384 87.1759 108.484 83.9059 111.984 82.3459C115.214 80.9059 119.014 81.1359 122.584 82.1459C123.234 80.7459 124.224 79.4759 125.604 78.4659C127.624 76.9859 130.274 76.1859 132.774 76.3859C135.834 76.6359 138.284 78.1359 140.134 80.5659C140.714 81.3259 140.244 82.5259 139.504 82.9659C138.604 83.5059 137.674 83.0859 137.104 82.3359C135.144 79.7659 131.594 79.2459 128.774 80.6359C127.464 81.2859 126.544 82.2259 125.944 83.3459C127.034 83.8159 128.074 84.3359 129.024 84.8759C131.644 86.3659 134.094 88.3259 135.954 90.7059C137.664 92.8959 139.294 95.9859 138.304 98.8159C137.254 101.836 134.144 102.156 131.494 101.196C128.574 100.136 126.324 98.0459 124.514 95.5659C122.454 92.7359 121.314 88.9959 121.664 85.5359C120.254 85.1459 118.814 84.9259 117.414 84.9159C115.354 84.9159 113.384 85.2059 111.794 86.5959C110.364 87.8459 109.504 89.5059 109.104 91.3259C111.944 92.0959 114.664 93.6059 116.714 95.2359C118.854 96.9259 120.534 99.1159 121.514 101.666C122.624 104.536 122.274 108.146 118.774 108.986C115.754 109.716 112.584 107.786 110.554 105.716C108.544 103.656 107.204 101.056 106.224 98.3659C105.744 97.0659 105.484 95.6759 105.414 94.2759C105.054 94.2659 104.694 94.2759 104.344 94.3259C99.8137 94.9459 98.4537 100.056 100.264 103.716C101.264 105.736 98.2437 107.516 97.2337 105.486C94.7937 100.556 95.8937 94.1259 101.244 91.6459L101.264 91.6359ZM125.644 90.3059C126.324 92.3859 127.774 94.2959 129.344 95.7959C130.074 96.4859 130.874 97.0959 131.784 97.5259C132.454 97.8459 133.644 98.4259 134.414 98.2159C136.164 97.7459 134.334 94.4859 133.844 93.7159C132.684 91.9159 131.014 90.3859 129.274 89.1659C128.014 88.2759 126.594 87.4559 125.104 86.7659C125.084 87.9359 125.274 89.1359 125.654 90.2959L125.644 90.3059ZM114.064 104.146C114.934 104.856 118.734 106.916 118.684 104.476C118.644 102.646 117.234 100.616 116.044 99.3359C114.504 97.6859 112.554 96.4359 110.464 95.5859C109.994 95.3959 109.504 95.2059 108.984 95.0259C109.464 98.4959 111.514 102.076 114.064 104.146Z" fill="#FFC9C7"/>
</g>
<rect id="Rectangle 240651746" x="22" y="140" width="209" height="38" fill="url(#paint1_linear_3722_3906)"/>
<rect id="Rectangle 240651747" y="140" width="71" height="41" fill="url(#paint2_linear_3722_3906)"/>
<rect id="Rectangle 240651748" width="83" height="41" transform="matrix(-1 0 0 1 244 140)" fill="url(#paint3_linear_3722_3906)"/>
<path id="Vector 16081" d="M55 85C55 82.4999 58.7502 80.4999 62 80.5C67 80.5001 72 82.5 76 86.5C83.5 94 80.6215 105.462 81.5 115C82.1576 122.139 81.7516 127.914 86.5 133.5C88.1844 135.482 93 138.5 96 138.5" stroke="#FFC9C7" stroke-width="3.5" stroke-linecap="round"/>
<path id="Vector 16083" d="M59 83L52 85L52.5 87L58 86.5L59 83Z" fill="#FFECEB"/>
</g>
</g>
<defs>
<linearGradient id="paint0_linear_3722_3906" x1="53.598" y1="59.1558" x2="147.068" y2="163.097" gradientUnits="userSpaceOnUse">
<stop offset="0.3" stop-color="#FFEBEA"/>
<stop offset="0.86" stop-color="#FFC9C7"/>
</linearGradient>
<linearGradient id="paint1_linear_3722_3906" x1="142.5" y1="174" x2="141.5" y2="140" gradientUnits="userSpaceOnUse">
<stop stop-color="white"/>
<stop offset="1" stop-color="#FCF2F2"/>
</linearGradient>
<linearGradient id="paint2_linear_3722_3906" x1="3.22727" y1="156.307" x2="13.9698" y2="176.677" gradientUnits="userSpaceOnUse">
<stop stop-color="white"/>
<stop offset="1" stop-color="white" stop-opacity="0"/>
</linearGradient>
<linearGradient id="paint3_linear_3722_3906" x1="20.75" y1="32.5" x2="37.8226" y2="43.5136" gradientUnits="userSpaceOnUse">
<stop stop-color="white"/>
<stop offset="1" stop-color="white" stop-opacity="0"/>
</linearGradient>
</defs>
</svg>
