<svg width="244" height="184" viewBox="0 0 244 184" fill="none" xmlns="http://www.w3.org/2000/svg">
<g id="img_home_after">
<rect id="Rectangle 240651760" x="227.185" y="139.027" width="5.53365" height="8.58434" transform="rotate(96.8721 227.185 139.027)" fill="#FFC9C7"/>
<g id="Group">
<path id="Vector" d="M29.6135 115.96C29.6135 132.98 39.2635 140.54 45.0435 140.54H133.104V75.83C133.104 75.37 132.764 75 132.354 75H69.3835C68.9635 75 68.6335 75.37 68.6335 75.83V90.28C68.6335 90.89 68.1835 91.38 67.6335 91.38H51.2735C38.9435 91.38 29.6035 102.38 29.6035 115.95L29.6135 115.96Z" fill="url(#paint0_linear_3722_3952)"/>
<path id="Vector_2" d="M44.5835 140.54V143.16C44.5835 144.61 45.6835 145.78 47.0435 145.78H130.654C132.014 145.78 133.113 144.61 133.113 143.16V140.54H44.5835Z" fill="url(#paint1_linear_3722_3952)"/>
<path id="Vector_3" d="M27.2637 96.59C28.6437 95.95 30.1537 95.7 31.6837 95.74C32.3837 92.13 34.4837 88.86 37.9837 87.3C41.2137 85.86 45.0137 86.09 48.5837 87.1C49.2337 85.7 50.2237 84.43 51.6037 83.42C53.6237 81.94 56.2737 81.14 58.7737 81.34C61.8337 81.59 64.2837 83.09 66.1337 85.52C66.7137 86.28 66.2437 87.48 65.5037 87.92C64.6037 88.46 63.6737 88.04 63.1037 87.29C61.1437 84.72 57.5937 84.2 54.7737 85.59C53.4637 86.24 52.5437 87.18 51.9437 88.3C53.0337 88.77 54.0737 89.29 55.0237 89.83C57.6437 91.32 60.0937 93.28 61.9537 95.66C63.6637 97.85 65.2937 100.94 64.3037 103.77C63.2537 106.79 60.1437 107.11 57.4937 106.15C54.5737 105.09 52.3237 103 50.5137 100.52C48.4537 97.69 47.3137 93.95 47.6637 90.49C46.2537 90.1 44.8137 89.88 43.4137 89.87C41.3537 89.87 39.3837 90.16 37.7937 91.55C36.3637 92.8 35.5037 94.46 35.1037 96.28C37.9437 97.05 40.6637 98.56 42.7137 100.19C44.8537 101.88 46.5337 104.07 47.5137 106.62C48.6237 109.49 48.2737 113.1 44.7737 113.94C41.7537 114.67 38.5837 112.74 36.5537 110.67C34.5437 108.61 33.2037 106.01 32.2237 103.32C31.7437 102.02 31.4837 100.63 31.4137 99.23C31.0537 99.22 30.6937 99.23 30.3437 99.28C25.8137 99.9 24.4537 105.01 26.2637 108.67C27.2637 110.69 24.2437 112.47 23.2337 110.44C20.7937 105.51 21.8937 99.08 27.2437 96.6L27.2637 96.59ZM51.6437 95.26C52.3237 97.34 53.7737 99.25 55.3437 100.75C56.0737 101.44 56.8737 102.05 57.7837 102.48C58.4537 102.8 59.6437 103.38 60.4137 103.17C62.1637 102.7 60.3337 99.44 59.8437 98.67C58.6837 96.87 57.0137 95.34 55.2737 94.12C54.0137 93.23 52.5937 92.41 51.1037 91.72C51.0837 92.89 51.2737 94.09 51.6537 95.25L51.6437 95.26ZM40.0637 109.1C40.9337 109.81 44.7337 111.87 44.6837 109.43C44.6437 107.6 43.2337 105.57 42.0437 104.29C40.5037 102.64 38.5537 101.39 36.4637 100.54C35.9937 100.35 35.5037 100.16 34.9837 99.98C35.4637 103.45 37.5137 107.03 40.0637 109.1Z" fill="#FFC9C7"/>
</g>
<g id="Group_2">
<path id="Vector_4" d="M99.6135 115.96C99.6135 132.98 109.264 140.54 115.044 140.54H203.104V75.83C203.104 75.37 202.764 75 202.354 75H139.384C138.964 75 138.634 75.37 138.634 75.83V90.28C138.634 90.89 138.184 91.38 137.634 91.38H121.274C108.944 91.38 99.6035 102.38 99.6035 115.95L99.6135 115.96Z" fill="#FF6259"/>
<path id="Vector_5" d="M114.583 140.54V143.16C114.583 144.61 115.683 145.78 117.043 145.78H200.654C202.014 145.78 203.113 144.61 203.113 143.16V140.54H114.583Z" fill="url(#paint2_linear_3722_3952)"/>
<path id="Vector_6" d="M97.2637 96.59C98.6437 95.95 100.154 95.7 101.684 95.74C102.384 92.13 104.484 88.86 107.984 87.3C111.214 85.86 115.014 86.09 118.584 87.1C119.234 85.7 120.224 84.43 121.604 83.42C123.624 81.94 126.274 81.14 128.774 81.34C131.834 81.59 134.284 83.09 136.134 85.52C136.714 86.28 136.244 87.48 135.504 87.92C134.604 88.46 133.674 88.04 133.104 87.29C131.144 84.72 127.594 84.2 124.774 85.59C123.464 86.24 122.544 87.18 121.944 88.3C123.034 88.77 124.074 89.29 125.024 89.83C127.644 91.32 130.094 93.28 131.954 95.66C133.664 97.85 135.294 100.94 134.304 103.77C133.254 106.79 130.144 107.11 127.494 106.15C124.574 105.09 122.324 103 120.514 100.52C118.454 97.69 117.314 93.95 117.664 90.49C116.254 90.1 114.814 89.88 113.414 89.87C111.354 89.87 109.384 90.16 107.794 91.55C106.364 92.8 105.504 94.46 105.104 96.28C107.944 97.05 110.664 98.56 112.714 100.19C114.854 101.88 116.534 104.07 117.514 106.62C118.624 109.49 118.274 113.1 114.774 113.94C111.754 114.67 108.584 112.74 106.554 110.67C104.544 108.61 103.204 106.01 102.224 103.32C101.744 102.02 101.484 100.63 101.414 99.23C101.054 99.22 100.694 99.23 100.344 99.28C95.8137 99.9 94.4537 105.01 96.2637 108.67C97.2637 110.69 94.2437 112.47 93.2337 110.44C90.7937 105.51 91.8937 99.08 97.2437 96.6L97.2637 96.59ZM121.644 95.26C122.324 97.34 123.774 99.25 125.344 100.75C126.074 101.44 126.874 102.05 127.784 102.48C128.454 102.8 129.644 103.38 130.414 103.17C132.164 102.7 130.334 99.44 129.844 98.67C128.684 96.87 127.014 95.34 125.274 94.12C124.014 93.23 122.594 92.41 121.104 91.72C121.084 92.89 121.274 94.09 121.654 95.25L121.644 95.26ZM110.064 109.1C110.934 109.81 114.734 111.87 114.684 109.43C114.644 107.6 113.234 105.57 112.044 104.29C110.504 102.64 108.554 101.39 106.464 100.54C105.994 100.35 105.504 100.16 104.984 99.98C105.464 103.45 107.514 107.03 110.064 109.1Z" fill="#FFC9C7"/>
</g>
<rect id="Rectangle 240651746" x="22" y="145" width="209" height="37" fill="url(#paint3_linear_3722_3952)"/>
<rect id="Rectangle 240651747" y="145" width="71" height="34" fill="url(#paint4_linear_3722_3952)"/>
<rect id="Rectangle 240651748" width="83" height="34" transform="matrix(-1 0 0 1 244 145)" fill="url(#paint5_linear_3722_3952)"/>
<path id="Rectangle 240651750" d="M12 145H231V182H12V145Z" fill="url(#paint6_linear_3722_3952)"/>
<rect id="Rectangle 240651751" x="160.446" y="46" width="5.53365" height="11" transform="rotate(43.9065 160.446 46)" fill="#FFD9BE"/>
<rect id="Rectangle 240651754" x="126.516" y="36.626" width="5.43195" height="7.17124" transform="rotate(108.341 126.516 36.626)" fill="#FFC9C7"/>
<rect id="Rectangle 240651757" x="130.169" y="3" width="5.53365" height="11" transform="rotate(56.4665 130.169 3)" fill="#FFD9BE"/>
<rect id="Rectangle 240651755" x="41.1646" y="65" width="6.22759" height="6.15992" transform="rotate(10.8987 41.1646 65)" fill="#FFD9BE"/>
<rect id="Rectangle 240651758" x="75.0142" y="51" width="6.22759" height="6.15992" transform="rotate(0.132882 75.0142 51)" fill="#E6E9FF"/>
<rect id="Rectangle 240651761" x="24" y="138.947" width="6.22759" height="6.15992" transform="rotate(-8.74632 24 138.947)" fill="#E6E9FF"/>
<rect id="Rectangle 240651756" x="187.817" y="46.1787" width="6.22759" height="6.15992" transform="rotate(-42.1436 187.817 46.1787)" fill="#FFC9C7"/>
</g>
<defs>
<linearGradient id="paint0_linear_3722_3952" x1="70.498" y1="103.5" x2="132.998" y2="158.5" gradientUnits="userSpaceOnUse">
<stop stop-color="#FF6E66"/>
<stop offset="0.946771" stop-color="#EF2B20"/>
</linearGradient>
<linearGradient id="paint1_linear_3722_3952" x1="83.5015" y1="143" x2="120.501" y2="143" gradientUnits="userSpaceOnUse">
<stop stop-color="#FFC9C7"/>
<stop offset="1" stop-color="#FCEDEC"/>
</linearGradient>
<linearGradient id="paint2_linear_3722_3952" x1="114.583" y1="143.16" x2="143.001" y2="143" gradientUnits="userSpaceOnUse">
<stop stop-color="#FFBDBA"/>
<stop offset="1" stop-color="#FFCAC8"/>
</linearGradient>
<linearGradient id="paint3_linear_3722_3952" x1="127" y1="142.898" x2="127" y2="175.671" gradientUnits="userSpaceOnUse">
<stop stop-color="#EFDBDB"/>
<stop offset="1" stop-color="white"/>
</linearGradient>
<linearGradient id="paint4_linear_3722_3952" x1="21" y1="172.78" x2="37.2464" y2="184.554" gradientUnits="userSpaceOnUse">
<stop stop-color="white"/>
<stop offset="1" stop-color="white" stop-opacity="0"/>
</linearGradient>
<linearGradient id="paint5_linear_3722_3952" x1="8" y1="17.4146" x2="19.6653" y2="33.4392" gradientUnits="userSpaceOnUse">
<stop stop-color="white"/>
<stop offset="1" stop-color="white" stop-opacity="0"/>
</linearGradient>
<linearGradient id="paint6_linear_3722_3952" x1="117.227" y1="133.648" x2="120.462" y2="181.855" gradientUnits="userSpaceOnUse">
<stop stop-color="white" stop-opacity="0"/>
<stop offset="1" stop-color="white"/>
</linearGradient>
</defs>
</svg>
