<svg width="40" height="40" viewBox="0 0 40 40" fill="none" xmlns="http://www.w3.org/2000/svg">
<g clip-path="url(#clip0_3700_3281)">
<path d="M37.2641 21.6481C37.2641 27.7346 33.7901 30.4366 31.7074 30.4366H0V7.29584C0 7.13214 0.120818 7 0.270487 7H22.9427C23.0924 7 23.2132 7.13214 23.2132 7.29584V12.4642C23.2132 12.6821 23.3746 12.8586 23.5738 12.8586H29.4632C33.901 12.8586 37.2641 16.7933 37.2641 21.6471V21.6481Z" fill="#FF6259"/>
<path d="M31.8737 30.4365V31.374C31.8737 31.8922 31.4777 32.3114 30.9882 32.3114H0.885556C0.396974 32.3114 0 31.8922 0 31.374V30.4365H31.8737Z" fill="#303031"/>
<path d="M38.1106 14.7224C37.6135 14.4929 37.0718 14.4043 36.5185 14.4185C36.2664 13.129 35.5118 11.9592 34.2485 11.3991C33.084 10.8834 31.7156 10.9649 30.4326 11.3265C30.1992 10.8249 29.8437 10.3729 29.3457 10.0095C28.6196 9.47959 27.6646 9.19246 26.7647 9.26602C25.6618 9.35552 24.7806 9.89257 24.116 10.7593C23.9075 11.0305 24.0759 11.4594 24.3423 11.6189C24.6648 11.8112 24.9998 11.6614 25.2065 11.3938C25.913 10.473 27.1906 10.2887 28.2071 10.7868C28.6784 11.0181 29.0116 11.3566 29.2263 11.7554C28.8334 11.9229 28.4601 12.1081 28.1171 12.3022C27.1728 12.8357 26.2916 13.5349 25.6208 14.3883C25.0052 15.1708 24.4198 16.2751 24.7744 17.2889C25.1522 18.3674 26.2738 18.4835 27.2253 18.1414C28.2766 17.763 29.0874 17.0133 29.7368 16.1262C30.4781 15.115 30.8888 13.7768 30.7614 12.5388C31.2701 12.4005 31.786 12.319 32.292 12.3181C33.0333 12.3172 33.7424 12.4218 34.3153 12.9172C34.8302 13.363 35.1385 13.9594 35.2828 14.6099C34.2618 14.8864 33.2809 15.427 32.5415 16.0083C31.7708 16.6136 31.1677 17.3961 30.8122 18.308C30.4122 19.3334 30.5369 20.6246 31.7993 20.925C32.8871 21.1847 34.0266 20.497 34.759 19.7543C35.4842 19.0188 35.9635 18.0865 36.3163 17.1267C36.4874 16.6623 36.5845 16.1652 36.6094 15.6636C36.7404 15.6591 36.8696 15.6636 36.9952 15.6804C38.6256 15.902 39.1165 17.7311 38.4652 19.0392C38.1053 19.7614 39.194 20.3986 39.5557 19.6728C40.4341 17.9101 40.0386 15.6113 38.1133 14.7233L38.1106 14.7224ZM29.3324 14.2483C29.0874 14.9927 28.5671 15.6769 28.0004 16.2104C27.7385 16.4567 27.4489 16.6739 27.1229 16.8307C26.8814 16.9468 26.4538 17.1524 26.1767 17.0789C25.5459 16.9105 26.2043 15.7451 26.3825 15.4704C26.8004 14.827 27.4008 14.2802 28.028 13.8424C28.4824 13.5252 28.992 13.23 29.5301 12.9846C29.5391 13.402 29.4687 13.8336 29.3324 14.2483ZM33.5028 19.196C33.1892 19.4495 31.8225 20.1868 31.8403 19.3139C31.8537 18.659 32.3606 17.9341 32.7918 17.475C33.3477 16.8839 34.0498 16.439 34.8008 16.135C34.9683 16.0668 35.1474 15.9977 35.3327 15.9339C35.1617 17.1746 34.4222 18.4543 33.5019 19.196H33.5028Z" fill="#303031" stroke="#303031" stroke-width="0.3"/>
</g>
<defs>
<clipPath id="clip0_3700_3281">
<rect width="40" height="40" fill="white"/>
</clipPath>
</defs>
</svg>
