<svg width="41" height="40" viewBox="0 0 41 40" fill="none" xmlns="http://www.w3.org/2000/svg">
<g clip-path="url(#clip0_2445_2629)">
<path fill-rule="evenodd" clip-rule="evenodd" d="M11.2976 29.4327H0.486372L0.5114 6.30948C0.511875 5.87024 0.868336 5.51416 1.30758 5.51416H19.877C20.3162 5.51416 20.6719 5.87024 20.6714 6.30948L20.6628 14.3332C22.1961 13.7072 23.8144 13.3861 25.4465 13.3861C27.3023 13.3861 29.1395 13.8012 30.8532 14.6078C32.5668 15.4143 34.1234 16.5965 35.434 18.0869C36.7446 19.5772 37.7836 21.3465 38.4917 23.2937C39.1998 25.241 39.5631 27.328 39.5608 29.4356H25.4292H11.2976C11.2976 29.4347 11.2976 29.4337 11.2976 29.4327Z" fill="url(#paint0_linear_2445_2629)"/>
<rect x="22.1174" y="17.9585" width="7.62386" height="2.40692" rx="1.20346" transform="rotate(-47.8453 22.1174 17.9585)" fill="#303031"/>
<rect x="27.498" y="20.3022" width="7.62386" height="2.40692" rx="1.20346" transform="rotate(-47.8453 27.498 20.3022)" fill="#303031"/>
<path d="M0.505127 29.4375H39.586V31.9671C39.586 32.4063 39.2299 32.7624 38.7906 32.7624H1.30045C0.861205 32.7624 0.505127 32.4063 0.505127 31.9671V29.4375Z" fill="#303031"/>
</g>
<defs>
<linearGradient id="paint0_linear_2445_2629" x1="9.43688" y1="9.92142" x2="19.9765" y2="29.4655" gradientUnits="userSpaceOnUse">
<stop stop-color="#6CE4FF"/>
<stop offset="1" stop-color="#B9F2FF"/>
</linearGradient>
<clipPath id="clip0_2445_2629">
<rect width="40" height="40" fill="white" transform="translate(0.488037)"/>
</clipPath>
</defs>
</svg>
