<svg width="335" height="52" viewBox="0 0 335 52" fill="none" xmlns="http://www.w3.org/2000/svg">
<rect width="335" height="52" rx="8" fill="#161616"/>
<path d="M104.734 31.3531C104.444 32.0228 104.101 32.6392 103.703 33.2059C103.162 33.9784 102.718 34.5132 102.376 34.8101C101.846 35.2976 101.278 35.5472 100.67 35.5614C100.233 35.5614 99.7069 35.4372 99.094 35.1852C98.4792 34.9344 97.9141 34.8101 97.3975 34.8101C96.8556 34.8101 96.2745 34.9344 95.6529 35.1852C95.0304 35.4372 94.5288 35.5685 94.1454 35.5815C93.5623 35.6064 92.981 35.3496 92.4008 34.8101C92.0305 34.4872 91.5673 33.9335 91.0125 33.1491C90.4171 32.3114 89.9277 31.3401 89.5442 30.2328C89.1336 29.0367 88.9277 27.8784 88.9277 26.7571C88.9277 25.4726 89.2053 24.3647 89.7612 23.4364C90.1981 22.6907 90.7794 22.1024 91.5069 21.6706C92.2344 21.2388 93.0204 21.0187 93.8669 21.0047C94.3301 21.0047 94.9375 21.1479 95.6923 21.4295C96.445 21.712 96.9283 21.8553 97.1402 21.8553C97.2986 21.8553 97.8355 21.6878 98.7456 21.3538C99.6063 21.044 100.333 20.9158 100.928 20.9663C102.54 21.0965 103.752 21.7321 104.558 22.8774C103.115 23.7512 102.402 24.9751 102.416 26.5452C102.429 27.7681 102.873 28.7858 103.745 29.5939C104.14 29.9689 104.581 30.2588 105.072 30.4646C104.966 30.7734 104.853 31.0692 104.734 31.3531ZM101.035 16.7999C101.035 17.7585 100.685 18.6535 99.9873 19.4819C99.1449 20.4667 98.126 21.0358 97.0211 20.946C97.0071 20.831 96.9989 20.7099 96.9989 20.5828C96.9989 19.6626 97.3995 18.6777 98.1109 17.8725C98.4661 17.4648 98.9178 17.1259 99.4655 16.8554C100.012 16.589 100.529 16.4417 101.015 16.4165C101.03 16.5446 101.035 16.6728 101.035 16.7999V16.7999Z" fill="white"/>
<path d="M119.795 32.5H117.352L121.834 19.7734H124.646L129.146 32.5H126.703L125.64 29.3535H120.85L119.795 32.5ZM121.465 27.5078H125.024L123.293 22.375H123.188L121.465 27.5078ZM130.553 36.0859V22.9551H132.75V24.5195H132.891C133.233 23.8428 133.937 22.832 135.633 22.832C137.83 22.832 139.562 24.5547 139.57 27.7363C139.562 30.874 137.883 32.667 135.633 32.6758C133.989 32.667 133.242 31.6914 132.891 30.9883H132.803V36.0859H130.553ZM132.75 27.7188C132.759 29.582 133.567 30.8301 135.018 30.8301C136.503 30.8301 137.285 29.5205 137.285 27.7188C137.285 25.9434 136.521 24.6689 135.018 24.6602C133.55 24.6689 132.759 25.8643 132.75 27.7188ZM141.328 36.0859V22.9551H143.525V24.5195H143.666C144.009 23.8428 144.712 22.832 146.408 22.832C148.605 22.832 150.337 24.5547 150.346 27.7363C150.337 30.874 148.658 32.667 146.408 32.6758C144.765 32.667 144.018 31.6914 143.666 30.9883H143.578V36.0859H141.328ZM143.525 27.7188C143.534 29.582 144.343 30.8301 145.793 30.8301C147.278 30.8301 148.061 29.5205 148.061 27.7188C148.061 25.9434 147.296 24.6689 145.793 24.6602C144.325 24.6689 143.534 25.8643 143.525 27.7188ZM154.354 19.7734V32.5H152.104V19.7734H154.354ZM160.734 32.6934C157.86 32.6934 156.094 30.7773 156.094 27.7891C156.094 24.8359 157.887 22.832 160.611 22.832C162.949 22.832 164.971 24.2998 164.971 27.6484V28.3516H158.309C158.344 29.9775 159.302 30.9443 160.752 30.9355C161.736 30.9443 162.396 30.5225 162.686 29.9512H164.883C164.479 31.6035 162.949 32.6934 160.734 32.6934ZM158.317 26.8223H162.826C162.817 25.5215 161.938 24.5723 160.646 24.5723C159.302 24.5723 158.396 25.6094 158.317 26.8223ZM184.957 30.6016V32.2188H170.438V30.6016H176.695V28.0176H172.16V22.8145H181.301V20.8457H172.125V19.2637H183.234V24.3613H174.111V26.418H183.604V28.0176H178.629V30.6016H184.957ZM198.633 19.7207V21.5137C198.633 23.6406 198.633 25.8291 198.053 29.1777L196.066 29.002C196.682 25.8818 196.682 23.5791 196.682 21.5137V21.3027H187.523V19.7207H198.633ZM185.994 31.8848V30.2852H200.479V31.8848H185.994ZM214.787 18.1914V29.6699H212.818V18.1914H214.787ZM201.832 23.2012C201.832 20.8896 203.704 19.2373 206.121 19.2285C208.538 19.2373 210.401 20.8896 210.393 23.2012C210.401 25.5479 208.538 27.1914 206.121 27.1914C203.704 27.1914 201.832 25.5479 201.832 23.2012ZM203.748 23.2012C203.739 24.6074 204.759 25.4863 206.121 25.4863C207.448 25.4863 208.477 24.6074 208.477 23.2012C208.477 21.8301 207.448 20.9336 206.121 20.9336C204.759 20.9336 203.739 21.8301 203.748 23.2012ZM204.275 33.748V28.5098H206.244V32.166H215.227V33.748H204.275ZM229.553 18.1738V24.502H231.996V26.1191H229.553V34.0645H227.619V18.1738H229.553ZM217.02 22.1816V20.6172H220.781V18.4023H222.732V20.6172H226.389V22.1816H217.02ZM217.758 26.9629C217.74 24.7656 219.445 23.21 221.766 23.2188C224.051 23.21 225.747 24.7656 225.756 26.9629C225.747 29.1514 224.051 30.6895 221.766 30.6895C219.445 30.6895 217.74 29.1514 217.758 26.9629ZM219.621 26.9629C219.612 28.2549 220.518 29.0811 221.766 29.0723C222.987 29.0811 223.875 28.2549 223.893 26.9629C223.875 25.6709 222.987 24.8184 221.766 24.8184C220.518 24.8184 219.612 25.6709 219.621 26.9629ZM245.936 18.1738V34.0645H243.967V18.1738H245.936ZM232.77 29.6875C236.936 27.71 238.852 25.0205 239.203 21.4082H233.578V19.8613H241.189C241.189 24.5898 239.353 28.6064 233.789 31.252L232.77 29.6875Z" fill="#ECEDF1"/>
</svg>
