<svg width="48" height="48" viewBox="0 0 48 48" fill="none" xmlns="http://www.w3.org/2000/svg">
<circle cx="24" cy="24" r="24" fill="#FF6259"/>
<g clip-path="url(#clip0_3592_10305)">
<path d="M40 22.9975C40 23.443 39.9793 23.8835 39.9386 24.3189C39.8018 25.7838 39.4409 27.1889 38.8876 28.5024C36.5468 34.0626 30.7637 37.9956 24 37.9956C21.4816 37.9956 19.0979 37.4496 16.9781 36.4776C11.6618 34.0393 8 28.9195 8 22.9975C8 14.7142 15.1639 8 24 8C28.6033 8 32.7518 9.82162 35.6718 12.739C37.8729 14.9378 39.3743 17.7605 39.8432 20.8933C39.8447 20.8963 39.8454 20.8999 39.8454 20.9035C39.9386 21.5282 39.9904 22.1645 39.9985 22.8118C39.9993 22.8737 40 22.9356 40 22.9975Z" fill="#080808"/>
<path d="M38.1857 24.1092C38.503 24.1282 38.7626 24.3626 38.8048 24.6728C38.8263 24.8351 38.8455 25.004 38.8617 25.178C38.8965 25.5646 38.9106 25.9265 38.9106 26.2585V27.7721C38.9106 28.0175 38.9032 28.2607 38.8884 28.5024C38.7057 31.5865 37.367 34.3524 35.2658 36.3983C32.9996 38.6043 29.8444 39.9731 26.2928 40C22.2464 40 19.1119 38.6553 16.9789 36.4776C15.615 35.0841 14.6602 33.3491 14.1395 31.4074C13.8311 30.2585 13.675 29.0382 13.675 27.7721V26.2585C13.675 25.7386 13.7091 25.2261 13.7734 24.723C13.7808 24.6633 13.8518 24.6349 13.9014 24.6706C14.8629 25.3746 16.0551 25.7911 17.345 25.7911C19.9314 25.7911 22.1207 24.118 22.8573 21.8107C22.8714 21.7678 22.918 21.7452 22.9609 21.7612C23.6872 22.0328 24.4785 22.1813 25.3062 22.1813C27.0265 22.1813 28.5886 21.5392 29.7387 20.4937C30.0256 20.233 30.2867 19.9476 30.5182 19.6404C30.55 19.5989 30.6121 19.5974 30.6447 19.6382C31.8887 21.1999 34.3294 23.7044 37.8019 24.0757C37.9306 24.0896 38.0593 24.1005 38.1872 24.1078L38.1857 24.1092Z" fill="#FFDAD2"/>
<path d="M38.7176 24.1237C38.6843 24.1252 38.6511 24.1252 38.617 24.1252C35.7422 24.1252 31.7379 22.182 30.5789 19.558C29.4252 21.143 27.4933 22.182 25.3055 22.182C24.4476 22.182 23.6288 22.0225 22.8811 21.732C22.1703 24.08 19.9604 25.7917 17.3443 25.7917C16.0049 25.7917 14.7712 25.3425 13.7913 24.5889C13.8075 24.4703 13.826 24.3516 13.8467 24.2336C14.4037 20.9938 16.2749 18.1856 18.9116 16.3399C19.4271 15.9788 19.9722 15.6541 20.5424 15.3709C22.2672 14.514 24.2213 14.0305 26.2922 14.0305C27.8971 14.0305 29.4318 14.321 30.843 14.8503C31.1078 14.9493 31.3674 15.0564 31.6225 15.1721C35.288 16.8299 37.9958 20.1456 38.7176 24.1237Z" fill="#FFDAD2"/>
<path d="M33.7924 28.6356C34.6759 28.6356 35.3922 27.91 35.3922 27.015C35.3922 26.1199 34.6759 25.3943 33.7924 25.3943C32.9089 25.3943 32.1926 26.1199 32.1926 27.015C32.1926 27.91 32.9089 28.6356 33.7924 28.6356Z" fill="#1C1C1C"/>
<path d="M27.7446 28.6356C28.6281 28.6356 29.3443 27.91 29.3443 27.015C29.3443 26.1199 28.6281 25.3943 27.7446 25.3943C26.861 25.3943 26.1448 26.1199 26.1448 27.015C26.1448 27.91 26.861 28.6356 27.7446 28.6356Z" fill="#1C1C1C"/>
<path d="M14.7296 24.1252H14.2163C12.3014 24.1252 10.749 25.6534 10.749 27.5384V28.0437C10.749 29.9287 12.3014 31.4569 14.2163 31.4569H14.7296C16.6445 31.4569 18.1969 29.9287 18.1969 28.0437V27.5384C18.1969 25.6534 16.6445 24.1252 14.7296 24.1252Z" fill="#FFDAD2"/>
<path d="M34.0528 28.0386H31.6528C30.8799 28.0386 30.2527 28.6953 30.2527 29.5064C30.2527 30.3167 30.8791 30.9741 31.6528 30.9741H34.0528C34.8257 30.9741 35.4529 30.3174 35.4529 29.5064C35.4529 28.696 34.8264 28.0386 34.0528 28.0386Z" fill="#FFA894"/>
<path d="M22.9579 19.4335C22.9475 20.013 22.8521 20.5714 22.6835 21.0964C21.9128 23.4917 19.6163 25.2092 16.9337 25.1641C16.3317 25.1539 15.7518 25.0556 15.2068 24.8816C14.8954 24.7826 14.6461 24.6741 14.4827 24.5976C14.4827 24.5976 13.857 24.3035 13.3111 23.8696C11.8755 22.728 11.3475 20.9748 11.3475 20.9748C11.0043 19.8208 11.0146 18.5212 11.4983 17.199C12.1063 15.5383 13.499 14.262 15.2201 13.764C16.5284 13.3854 17.8013 13.4335 18.9218 13.8048C19.4514 13.9795 19.9477 14.2263 20.3973 14.5328C21.9735 15.6038 22.9919 17.4065 22.9571 19.4335H22.9579Z" fill="#080808"/>
<path d="M40 22.744C40 23.2012 39.9845 23.6533 39.9549 24.1004C39.6931 24.2045 39.3958 24.2627 39.0592 24.2693C39.0348 24.2707 39.0104 24.2707 38.9853 24.2707C36.8774 24.2707 33.0233 20.5365 32.1735 17.9125C32.0196 17.4378 31.9346 16.9413 31.9346 16.4294C31.9346 15.2434 32.0721 14.1382 32.3672 13.2048C32.4619 12.9049 32.5721 12.6231 32.7001 12.3617C33.2156 11.3097 32.6853 12.0079 33.7917 11.8332C36.1259 14.6224 39.9993 18.6704 39.9993 22.7447L40 22.744Z" fill="#080808"/>
<path d="M31.703 16.131C31.703 17.403 31.2881 18.5839 30.5788 19.5581C29.425 21.1431 27.4931 22.182 25.3054 22.182C24.4474 22.182 23.6287 22.0226 22.8809 21.7321C20.6133 20.854 18.998 18.7805 18.9114 16.34C18.9085 16.2708 18.907 16.2009 18.907 16.131C18.907 15.6323 18.9706 15.1482 19.0911 14.6851C19.776 12.0422 22.2988 10.0808 25.3054 10.0808C28.0478 10.0808 30.388 11.7139 31.2969 14.0073C31.4456 14.3793 31.5551 14.7688 31.6224 15.1722C31.6756 15.4845 31.703 15.8049 31.703 16.131Z" fill="#080808"/>
<path d="M27.2906 24.3625C30.1532 24.3625 32.4738 22.0782 32.4738 19.2603C32.4738 16.4423 30.1532 14.158 27.2906 14.158C24.428 14.158 22.1074 16.4423 22.1074 19.2603C22.1074 22.0782 24.428 24.3625 27.2906 24.3625Z" fill="#080808"/>
<path d="M27.2099 24.3604L20.9232 24.9297C20.7117 24.9494 20.4203 24.9654 20.0749 24.9443C18.2636 24.8351 17.0225 23.8507 16.8021 23.6709C15.0862 22.2708 14.8362 20.3225 14.7926 19.9126L14.5803 17.6439L26.4807 16.5657L27.2092 24.3604H27.2099Z" fill="#080808"/>
<path d="M17.1572 25.1636C17.1572 25.1636 18.8294 25.1199 20.3797 24.9553C21.8656 24.7973 25.3476 22.485 25.3476 22.485L21.1289 19.8545L14.8755 21.8261L17.1572 25.1636Z" fill="#080808"/>
<path d="M30.9582 13.7671L32.9958 15.2611L32.6475 18.0183L30.4109 18.319L30.9582 13.7671Z" fill="#080808"/>
</g>
<defs>
<clipPath id="clip0_3592_10305">
<rect width="32" height="32" fill="white" transform="translate(8 8)"/>
</clipPath>
</defs>
</svg>
