<svg width="60" height="60" viewBox="0 0 60 60" fill="none" xmlns="http://www.w3.org/2000/svg">
<circle cx="30" cy="30" r="30" fill="white"/>
<g clip-path="url(#clip0_3641_4263)">
<path d="M50 28.7468C50 29.3038 49.9741 29.8544 49.9233 30.3986C49.7522 32.2297 49.3011 33.9862 48.6095 35.628C45.6834 42.5783 38.4547 47.4945 30 47.4945C26.852 47.4945 23.8723 46.812 21.2227 45.597C14.5773 42.5491 10 36.1494 10 28.7468C10 18.3928 18.9548 10 30 10C35.7542 10 40.9398 12.277 44.5897 15.9237C47.3411 18.6722 49.2179 22.2006 49.804 26.1167C49.8059 26.1203 49.8068 26.1249 49.8068 26.1294C49.9233 26.9103 49.988 27.7057 49.9982 28.5147C49.9991 28.5921 50 28.6695 50 28.7468Z" fill="#080808"/>
<path d="M47.7321 30.1365C48.1287 30.1602 48.4532 30.4532 48.5059 30.8409C48.5328 31.0439 48.5568 31.255 48.5771 31.4725C48.6206 31.9558 48.6381 32.4081 48.6381 32.8231V34.7152C48.6381 35.0219 48.6289 35.3258 48.6104 35.628C48.3821 39.4831 46.7087 42.9405 44.0821 45.4978C41.2494 48.2554 37.3055 49.9664 32.8659 50C27.8079 50 23.8898 48.3191 21.2236 45.597C19.5187 43.8551 18.3252 41.6864 17.6743 39.2592C17.2888 37.8231 17.0938 36.2978 17.0938 34.7152V32.8231C17.0938 32.1733 17.1363 31.5326 17.2167 30.9037C17.226 30.8291 17.3147 30.7936 17.3767 30.8382C18.5785 31.7183 20.0688 32.2388 21.6812 32.2388C24.9142 32.2388 27.6508 30.1475 28.5716 27.2634C28.5891 27.2097 28.6474 27.1815 28.701 27.2015C29.6089 27.541 30.5981 27.7266 31.6326 27.7266C33.7831 27.7266 35.7356 26.9239 37.1733 25.6171C37.532 25.2913 37.8583 24.9345 38.1477 24.5504C38.1874 24.4986 38.2651 24.4968 38.3058 24.5477C39.8608 26.4998 42.9117 29.6305 47.2523 30.0947C47.4132 30.112 47.574 30.1256 47.734 30.1347L47.7321 30.1365Z" fill="#FFDAD2"/>
<path d="M48.3967 30.1548C48.3551 30.1566 48.3135 30.1566 48.271 30.1566C44.6774 30.1566 39.6721 27.7276 38.2234 24.4477C36.7811 26.4289 34.3663 27.7276 31.6316 27.7276C30.5592 27.7276 29.5357 27.5283 28.601 27.1652C27.7126 30.1002 24.9501 32.2398 21.6801 32.2398C20.0058 32.2398 18.4637 31.6783 17.2388 30.7364C17.2591 30.588 17.2822 30.4397 17.3081 30.2922C18.0043 26.2424 20.3433 22.7322 23.6392 20.4251C24.2836 19.9737 24.9649 19.5678 25.6777 19.2138C27.8337 18.1426 30.2763 17.5383 32.8649 17.5383C34.8711 17.5383 36.7895 17.9015 38.5534 18.5631C38.8844 18.6869 39.2089 18.8206 39.5279 18.9653C44.1098 21.0376 47.4944 25.1821 48.3967 30.1548Z" fill="#FFDAD2"/>
<path d="M42.2404 35.7946C43.3449 35.7946 44.2402 34.8876 44.2402 33.7688C44.2402 32.6499 43.3449 31.7429 42.2404 31.7429C41.136 31.7429 40.2407 32.6499 40.2407 33.7688C40.2407 34.8876 41.136 35.7946 42.2404 35.7946Z" fill="#1C1C1C"/>
<path d="M34.6809 35.7946C35.7853 35.7946 36.6806 34.8876 36.6806 33.7688C36.6806 32.6499 35.7853 31.7429 34.6809 31.7429C33.5765 31.7429 32.6812 32.6499 32.6812 33.7688C32.6812 34.8876 33.5765 35.7946 34.6809 35.7946Z" fill="#1C1C1C"/>
<path d="M18.4123 30.1565H17.7706C15.377 30.1565 13.4365 32.0667 13.4365 34.423V35.0546C13.4365 37.4109 15.377 39.321 17.7706 39.321H18.4123C20.8059 39.321 22.7464 37.4109 22.7464 35.0546V34.423C22.7464 32.0667 20.8059 30.1565 18.4123 30.1565Z" fill="#FFDAD2"/>
<path d="M42.5661 35.0483H39.566C38.5999 35.0483 37.8159 35.8692 37.8159 36.8831C37.8159 37.896 38.599 38.7178 39.566 38.7178H42.5661C43.5322 38.7178 44.3162 37.8969 44.3162 36.8831C44.3162 35.8701 43.5331 35.0483 42.5661 35.0483Z" fill="#FFA894"/>
<path d="M28.6972 24.292C28.6843 25.0164 28.565 25.7145 28.3542 26.3707C27.3909 29.3648 24.5203 31.5117 21.1671 31.4553C20.4145 31.4425 19.6897 31.3197 19.0083 31.1022C18.6191 30.9784 18.3075 30.8428 18.1032 30.7472C18.1032 30.7472 17.3211 30.3796 16.6388 29.8372C14.8443 28.4101 14.1842 26.2187 14.1842 26.2187C13.7552 24.7762 13.7682 23.1517 14.3728 21.499C15.1328 19.4231 16.8736 17.8277 19.025 17.2052C20.6604 16.732 22.2515 16.792 23.6522 17.2562C24.3141 17.4746 24.9345 17.7831 25.4966 18.1662C27.4667 19.505 28.7398 21.7583 28.6963 24.292H28.6972Z" fill="#080808"/>
<path d="M49.9998 28.4302C49.9998 29.0017 49.9804 29.5669 49.9434 30.1257C49.6161 30.2558 49.2445 30.3286 48.8238 30.3368C48.7933 30.3387 48.7628 30.3387 48.7314 30.3387C46.0965 30.3387 41.2789 25.6708 40.2166 22.3909C40.0243 21.7975 39.918 21.1768 39.918 20.5371C39.918 19.0545 40.0899 17.673 40.4588 16.5063C40.5771 16.1313 40.7149 15.7791 40.8748 15.4524C41.5192 14.1373 40.8564 15.0101 42.2394 14.7917C45.1572 18.2782 49.9989 23.3383 49.9989 28.4311L49.9998 28.4302Z" fill="#080808"/>
<path d="M39.6288 20.1639C39.6288 21.7538 39.1101 23.2299 38.2235 24.4476C36.7813 26.4289 34.3665 27.7276 31.6318 27.7276C30.5593 27.7276 29.5359 27.5283 28.6012 27.1651C25.7666 26.0676 23.7475 23.4757 23.6393 20.4251C23.6356 20.3386 23.6338 20.2512 23.6338 20.1639C23.6338 19.5405 23.7133 18.9353 23.864 18.3564C24.7201 15.0528 27.8736 12.6011 31.6318 12.6011C35.0599 12.6011 37.985 14.6424 39.1212 17.5092C39.3071 17.9742 39.4439 18.4611 39.528 18.9653C39.5946 19.3557 39.6288 19.7562 39.6288 20.1639Z" fill="#080808"/>
<path d="M34.1133 30.4532C37.6915 30.4532 40.5923 27.5978 40.5923 24.0754C40.5923 20.553 37.6915 17.6975 34.1133 17.6975C30.535 17.6975 27.6343 20.553 27.6343 24.0754C27.6343 27.5978 30.535 30.4532 34.1133 30.4532Z" fill="#080808"/>
<path d="M34.0126 30.4504L26.1542 31.1621C25.8898 31.1866 25.5255 31.2067 25.0938 31.1803C22.8297 31.0438 21.2783 29.8133 21.0028 29.5885C18.858 27.8384 18.5455 25.4031 18.4909 24.8907L18.2256 22.0549L33.101 20.707L34.0117 30.4504H34.0126Z" fill="#080808"/>
<path d="M21.4464 31.4542C21.4464 31.4542 23.5367 31.3996 25.4745 31.1939C27.3318 30.9964 31.6844 28.106 31.6844 28.106L26.411 24.8179L18.5942 27.2824L21.4464 31.4542Z" fill="#080808"/>
<path d="M38.6978 17.2087L41.2448 19.0762L40.8094 22.5227L38.0137 22.8986L38.6978 17.2087Z" fill="#080808"/>
</g>
<defs>
<clipPath id="clip0_3641_4263">
<rect width="40" height="40" fill="white" transform="translate(10 10)"/>
</clipPath>
</defs>
</svg>
