<svg width="40" height="40" viewBox="0 0 40 40" fill="none" xmlns="http://www.w3.org/2000/svg">
<rect x="2.22949" y="8.87714" width="35.5399" height="24.2318" rx="1.95724" fill="#707276"/>
<circle cx="20.001" cy="20.9928" r="8.30608" fill="#303031" stroke="#ECEDF1" stroke-width="2.07309"/>
<path d="M5.96191 8.87714L5.96191 6.15801C5.96191 5.17759 6.75669 4.38281 7.73711 4.38281L12.8203 4.38281C13.8007 4.38281 14.5955 5.1776 14.5955 6.15801L14.5955 8.87714L5.96191 8.87714Z" fill="#464747"/>
<path d="M5.8775 8.87714C5.68142 8.87714 5.52246 8.71818 5.52246 8.5221L5.52246 7.92418C5.52246 7.7281 5.68142 7.56915 5.8775 7.56915L14.6831 7.56915C14.8792 7.56915 15.0381 7.7281 15.0381 7.92418L15.0381 8.5221C15.0381 8.71818 14.8792 8.87714 14.6831 8.87714L5.8775 8.87714Z" fill="#C0C1C3"/>
</svg>
