<svg width="78" height="16" viewBox="0 0 78 16" fill="none" xmlns="http://www.w3.org/2000/svg">
<g clip-path="url(#clip0_2500_3097)">
<rect width="78" height="16" fill="white"/>
<path d="M15.6999 2.93958V15.4171H13.0832V6.3073L9.76396 7.15528L9.18249 4.80514V15.4171H6.54161V5.94387H2.64087V15.4171H0V3.32723H9.18249V4.58709L15.6999 2.93958Z" fill="#303031"/>
<path d="M22.6617 15.4394C19.3425 15.4394 16.6289 12.75 16.6289 9.43076C16.6289 6.1115 19.3425 3.39795 22.6617 3.39795C25.981 3.39795 28.6703 6.1115 28.6703 9.43076C28.6703 12.75 25.981 15.4394 22.6617 15.4394ZM22.6617 6.03882C20.7719 6.03882 19.2698 7.54096 19.2698 9.43076C19.2698 11.3206 20.7719 12.8227 22.6617 12.8227C24.5515 12.8227 26.0537 11.2963 26.0537 9.43076C26.0537 7.56519 24.5273 6.03882 22.6617 6.03882Z" fill="#303031"/>
<path d="M34.3265 12.7252V15.3419H29.1309L30.7353 5.90903L29.3731 5.9198V3.37584L31.1876 3.3893L31.5644 0.996094L34.1273 1.44028L32.2186 12.6849L34.3265 12.7252Z" fill="#303031"/>
<path d="M38.5377 15.7645L35.9453 15.3095L37.8755 4.29378L40.4679 4.74873L38.5377 15.7645ZM36.7125 2.64087V0H40.1287V2.64087H36.7125Z" fill="#303031"/>
<path d="M52.1003 3.38966L49.9602 16.0179L40.9473 4.44224L43.0067 2.84318L48.3692 9.7213L49.5456 2.82703L52.1003 3.38966Z" fill="#303031"/>
<path d="M58.5484 15.4394C55.2292 15.4394 52.5156 12.75 52.5156 9.43076C52.5156 6.1115 55.2292 3.39795 58.5484 3.39795C61.8677 3.39795 64.557 6.1115 64.557 9.43076C64.557 12.75 61.8677 15.4394 58.5484 15.4394ZM58.5484 6.03882C56.6586 6.03882 55.1565 7.54096 55.1565 9.43076C55.1565 11.3206 56.6586 12.8227 58.5484 12.8227C60.4382 12.8227 61.9404 11.2963 61.9404 9.43076C61.9404 7.56519 60.414 6.03882 58.5484 6.03882Z" fill="#303031"/>
<path d="M71.5133 15.4381C68.194 15.4381 65.4805 12.7488 65.4805 9.42954C65.4805 6.11028 68.194 3.39673 71.5133 3.39673C74.8326 3.39673 77.5219 6.11028 77.5219 9.42954C77.5219 12.7488 74.8326 15.4381 71.5133 15.4381ZM71.5133 6.0376C69.6235 6.0376 68.1213 7.53974 68.1213 9.42954C68.1213 11.3193 69.6235 12.8215 71.5133 12.8215C73.4031 12.8215 74.9052 11.2951 74.9052 9.42954C74.9052 7.56397 73.3789 6.0376 71.5133 6.0376Z" fill="#303031"/>
<path d="M34.7882 3.3894H33.0977V5.91991H34.7882V3.3894Z" fill="#303031"/>
</g>
<defs>
<clipPath id="clip0_2500_3097">
<rect width="78" height="16" fill="white"/>
</clipPath>
</defs>
</svg>
