<svg width="335" height="52" viewBox="0 0 335 52" fill="none" xmlns="http://www.w3.org/2000/svg">
<rect width="335" height="52" rx="8" fill="#FEE500"/>
<path fill-rule="evenodd" clip-rule="evenodd" d="M98.0001 16.6667C92.4769 16.6667 88 20.1256 88 24.3915C88 27.0446 89.7316 29.3834 92.3684 30.7745L91.2589 34.8274C91.1609 35.1855 91.5705 35.4709 91.885 35.2634L96.7482 32.0537C97.1586 32.0933 97.5757 32.1164 98.0001 32.1164C103.523 32.1164 108 28.6577 108 24.3915C108 20.1256 103.523 16.6667 98.0001 16.6667Z" fill="black"/>
<path d="M126.927 19.2383C126.918 24.0371 125.608 28.1592 119.755 31.0684L118.683 29.5918C121.434 28.2383 123.077 26.6475 124 24.7666L119.052 25.2324L118.806 23.5449L124.589 23.1846C124.791 22.4375 124.923 21.6553 124.984 20.8203H119.632V19.2383H126.927ZM129.159 33.5293V17.6738H131.11V23.8965H133.466V25.4961H131.11V33.5293H129.159ZM142.483 19.2383C142.475 24.0371 141.165 28.1592 135.312 31.0684L134.239 29.5918C136.99 28.2383 138.634 26.6475 139.557 24.7666L134.608 25.2324L134.362 23.5449L140.146 23.1846C140.348 22.4375 140.479 21.6553 140.541 20.8203H135.188V19.2383H142.483ZM144.716 33.5293V17.6738H146.667V23.8965H149.022V25.4961H146.667V33.5293H144.716ZM157.003 18.5703C160.413 18.5791 162.936 20.2754 162.927 22.8594C162.936 25.2412 160.888 26.832 157.97 27.1221V30.0312H164.298V31.6309H149.778V30.0312H156.036V27.1221C153.153 26.832 151.105 25.2412 151.114 22.8594C151.105 20.2754 153.619 18.5791 157.003 18.5703ZM153.03 22.8594C153.021 24.5732 154.683 25.6016 157.003 25.6016C159.358 25.6016 161.011 24.5732 161.011 22.8594C161.011 21.1982 159.358 20.1436 157.003 20.1523C154.683 20.1436 153.021 21.1982 153.03 22.8594ZM184.126 30.1016V31.7188H169.606V30.1016H175.864V27.5176H171.329V22.3145H180.47V20.3457H171.294V18.7637H182.403V23.8613H173.28V25.918H182.772V27.5176H177.798V30.1016H184.126ZM197.802 19.2207V21.0137C197.802 23.1406 197.802 25.3291 197.222 28.6777L195.235 28.502C195.851 25.3818 195.851 23.0791 195.851 21.0137V20.8027H186.692V19.2207H197.802ZM185.163 31.3848V29.7852H199.647V31.3848H185.163ZM213.956 17.6914V29.1699H211.987V17.6914H213.956ZM201.001 22.7012C201.001 20.3896 202.873 18.7373 205.29 18.7285C207.707 18.7373 209.57 20.3896 209.562 22.7012C209.57 25.0479 207.707 26.6914 205.29 26.6914C202.873 26.6914 201.001 25.0479 201.001 22.7012ZM202.917 22.7012C202.908 24.1074 203.928 24.9863 205.29 24.9863C206.617 24.9863 207.646 24.1074 207.646 22.7012C207.646 21.3301 206.617 20.4336 205.29 20.4336C203.928 20.4336 202.908 21.3301 202.917 22.7012ZM203.444 33.248V28.0098H205.413V31.666H214.396V33.248H203.444ZM228.722 17.6738V24.002H231.165V25.6191H228.722V33.5645H226.788V17.6738H228.722ZM216.188 21.6816V20.1172H219.95V17.9023H221.901V20.1172H225.558V21.6816H216.188ZM216.927 26.4629C216.909 24.2656 218.614 22.71 220.935 22.7188C223.22 22.71 224.916 24.2656 224.925 26.4629C224.916 28.6514 223.22 30.1895 220.935 30.1895C218.614 30.1895 216.909 28.6514 216.927 26.4629ZM218.79 26.4629C218.781 27.7549 219.687 28.5811 220.935 28.5723C222.156 28.5811 223.044 27.7549 223.062 26.4629C223.044 25.1709 222.156 24.3184 220.935 24.3184C219.687 24.3184 218.781 25.1709 218.79 26.4629ZM245.104 17.6738V33.5645H243.136V17.6738H245.104ZM231.938 29.1875C236.104 27.21 238.021 24.5205 238.372 20.9082H232.747V19.3613H240.358C240.358 24.0898 238.521 28.1064 232.958 30.752L231.938 29.1875Z" fill="#0F0F0F"/>
</svg>
