<svg width="60" height="60" viewBox="0 0 60 60" fill="none" xmlns="http://www.w3.org/2000/svg">
<circle cx="30" cy="30" r="30" transform="matrix(-1 0 0 1 60 0)" fill="white"/>
<g clip-path="url(#clip0_3691_3159)">
<path d="M50 28.7477C50 29.3047 49.9741 29.8553 49.9233 30.3995C49.0311 39.98 40.4525 47.4945 30 47.4945C18.9548 47.4945 10 39.1017 10 28.7477C10 28.3837 10.0111 28.0224 10.0333 27.6638C10.6324 17.814 19.3431 10 30 10C32.3261 10 34.5597 10.3722 36.6362 11.0566C39.6963 12.065 42.4153 13.7523 44.5897 15.9237C47.9448 19.2765 50 23.7869 50 28.7477Z" fill="#C0C1C3"/>
<path d="M48.2064 28.8689C46.5173 22.3436 40.1649 17.5383 32.865 17.5383C24.1542 17.5383 17.0928 24.3812 17.0928 32.8232V34.7153C17.0928 43.1572 22.6583 50.0001 32.865 50.0001C41.7449 49.9319 48.6372 43.1572 48.6372 34.7153V33.7497L48.6464 33.7697V29.4304C48.6464 29.1665 48.4661 28.9362 48.2064 28.8698V28.8689Z" fill="#FFE7E2"/>
<path d="M42.2404 35.7953C43.3449 35.7953 44.2402 34.8883 44.2402 33.7695C44.2402 32.6507 43.3449 31.7437 42.2404 31.7437C41.136 31.7437 40.2407 32.6507 40.2407 33.7695C40.2407 34.8883 41.136 35.7953 42.2404 35.7953Z" fill="#1C1C1C"/>
<path d="M34.6809 35.7953C35.7853 35.7953 36.6806 34.8883 36.6806 33.7695C36.6806 32.6507 35.7853 31.7437 34.6809 31.7437C33.5765 31.7437 32.6812 32.6507 32.6812 33.7695C32.6812 34.8883 33.5765 35.7953 34.6809 35.7953Z" fill="#1C1C1C"/>
<path d="M22.7464 34.7388C22.7464 32.208 20.6623 30.1565 18.0914 30.1565C15.5206 30.1565 13.4365 32.208 13.4365 34.7388C13.4365 37.2695 15.5206 39.321 18.0914 39.321C20.6623 39.321 22.7464 37.2695 22.7464 34.7388Z" fill="#FFE7E2"/>
<path d="M42.5661 35.0483H39.566C38.5999 35.0483 37.8159 35.8692 37.8159 36.8831C37.8159 37.896 38.599 38.7178 39.566 38.7178H42.5661C43.5322 38.7178 44.3162 37.8969 44.3162 36.8831C44.3162 35.8701 43.5331 35.0483 42.5661 35.0483Z" fill="#FFA894"/>
<path d="M15.46 29.971C17.0927 31.418 19.5445 31.398 21.7328 31.2078C24.2706 30.9875 26.8444 30.6353 29.1492 29.5669C32.3536 28.0816 34.786 25.3141 36.5509 22.2917C37.4412 20.7655 38.1993 19.1082 38.2954 17.3518L29.4821 14.6606L23.09 15.6117L18.8548 20.6836L16.7617 25.2804L15.4609 29.971H15.46Z" fill="#C0C1C3"/>
<path d="M48.7891 28.9781C43.8725 27.9333 39.5513 23.8125 37.9307 18.6241L40.0783 17.4382L44.9829 20.7418L49.2504 26.6956L48.7891 28.9772V28.9781Z" fill="#C0C1C3"/>
<path d="M26.618 31.1194C20.2371 33.0579 13.7636 31.5171 10.0332 27.6638C10.6323 17.814 19.3431 10 29.9999 10C32.326 10 34.5596 10.3722 36.6361 11.0566C37.2157 11.923 37.6752 12.8713 37.996 13.8933C40.1733 20.8364 35.0792 28.5493 26.618 31.1194Z" fill="#C0C1C3"/>
</g>
<defs>
<clipPath id="clip0_3691_3159">
<rect width="40" height="40" fill="white" transform="translate(10 10)"/>
</clipPath>
</defs>
</svg>
