<svg width="45" height="44" viewBox="0 0 45 44" fill="none" xmlns="http://www.w3.org/2000/svg">
<rect x="0.535889" width="44" height="44" rx="22" fill="#F4F5F9"/>
<rect x="10.6799" y="14.5967" width="24.6662" height="16.8179" rx="1.35841" fill="#707276"/>
<circle cx="23.0131" cy="23.0053" r="5.76477" fill="#303031" stroke="#ECEDF1" stroke-width="1.43881"/>
<path d="M13.27 14.5967L13.27 12.7095C13.27 12.029 13.8216 11.4774 14.5021 11.4774L18.03 11.4774C18.7105 11.4774 19.2621 12.029 19.2621 12.7095L19.2621 14.5967L13.27 14.5967Z" fill="#464747"/>
<path d="M13.2115 14.5967C13.0754 14.5967 12.9651 14.4864 12.9651 14.3503L12.9651 13.9353C12.9651 13.7992 13.0754 13.6889 13.2115 13.6889L19.3229 13.6889C19.459 13.6889 19.5694 13.7992 19.5694 13.9353L19.5694 14.3503C19.5694 14.4864 19.459 14.5967 19.3229 14.5967L13.2115 14.5967Z" fill="#C0C1C3"/>
</svg>
