<svg width="45" height="44" viewBox="0 0 45 44" fill="none" xmlns="http://www.w3.org/2000/svg">
<rect x="0.535889" width="44" height="44" rx="22" fill="#F4F5F9"/>
<rect x="10.5542" y="13.3604" width="23.9636" height="17.9727" rx="1.45168" fill="#303031"/>
<path d="M17.7737 22.1105C18.0679 21.6865 18.7429 21.6865 19.0371 22.1105L22.3291 26.8566C22.6461 27.3136 22.2881 27.9114 21.6975 27.9114H15.1134C14.5227 27.9114 14.1647 27.3136 14.4817 26.8566L17.7737 22.1105Z" fill="#F4F5F9"/>
<path d="M24.0727 19.7039C24.4889 19.1039 25.444 19.1039 25.8601 19.7039L30.5178 26.4188C30.9663 27.0653 30.4598 27.9112 29.6241 27.9112H20.3087C19.473 27.9112 18.9665 27.0653 19.415 26.4188L24.0727 19.7039Z" fill="#F4F5F9"/>
</svg>
