<svg width="166" height="212" viewBox="0 0 166 212" fill="none" xmlns="http://www.w3.org/2000/svg">
<mask id="path-1-outside-1_3650_7719" maskUnits="userSpaceOnUse" x="0" y="0" width="166" height="212" fill="black">
<rect fill="white" width="166" height="212"/>
<path fill-rule="evenodd" clip-rule="evenodd" d="M9 1C4.58172 1 1 4.58172 1 9V173C1 177.418 4.58172 181 9 181H53C53 197.569 66.4315 211 83 211C99.5685 211 113 197.569 113 181H157C161.418 181 165 177.418 165 173V9C165 4.58172 161.418 1 157 1H9Z"/>
</mask>
<path fill-rule="evenodd" clip-rule="evenodd" d="M9 1C4.58172 1 1 4.58172 1 9V173C1 177.418 4.58172 181 9 181H53C53 197.569 66.4315 211 83 211C99.5685 211 113 197.569 113 181H157C161.418 181 165 177.418 165 173V9C165 4.58172 161.418 1 157 1H9Z" fill="white"/>
<path d="M53 181H54V180H53V181ZM113 181V180H112V181H113ZM2 9C2 5.13401 5.13401 2 9 2V0C4.02944 0 0 4.02944 0 9H2ZM2 173V9H0V173H2ZM9 180C5.13401 180 2 176.866 2 173H0C0 177.971 4.02944 182 9 182V180ZM53 180H9V182H53V180ZM83 210C66.9837 210 54 197.016 54 181H52C52 198.121 65.8792 212 83 212V210ZM112 181C112 197.016 99.0163 210 83 210V212C100.121 212 114 198.121 114 181H112ZM157 180H113V182H157V180ZM164 173C164 176.866 160.866 180 157 180V182C161.971 182 166 177.971 166 173H164ZM164 9V173H166V9H164ZM157 2C160.866 2 164 5.13401 164 9H166C166 4.02944 161.971 0 157 0V2ZM9 2H157V0H9V2Z" fill="#FFCBC8" mask="url(#path-1-outside-1_3650_7719)"/>
</svg>
