<svg width="375" height="411" viewBox="0 0 375 411" fill="none" xmlns="http://www.w3.org/2000/svg">
<path d="M0 0H375V399C375 405.627 369.627 411 363 411H12C5.37259 411 0 405.627 0 399V0Z" fill="#FFF4F2"/>
<path fill-rule="evenodd" clip-rule="evenodd" d="M369.994 127.557L294.759 101.941L287.056 124.564C286.886 125.064 286.343 125.332 285.843 125.161L270.278 119.862C253.383 114.109 235.026 123.143 229.275 140.035C222.652 159.538 233.085 180.718 252.583 187.357L339.579 216.978L342.784 207.565L370.053 127.574L369.992 127.553L369.994 127.557Z" fill="#FFDAD7"/>
<path d="M221.597 132.717C221.264 131.487 221.063 130.224 220.972 128.952L221.026 129.708C220.917 128.05 220.998 126.387 221.313 124.753L221.161 125.521C221.421 124.216 221.831 122.951 222.421 121.759L222.073 122.459C222.543 121.535 223.118 120.67 223.802 119.889L223.297 120.455C223.973 119.699 224.735 119.044 225.578 118.484L224.956 118.896C225.606 118.475 226.285 118.125 227.018 117.868L226.312 118.11C227.122 117.832 227.961 117.671 228.816 117.608L228.06 117.662C229.16 117.587 230.264 117.675 231.348 117.885L230.581 117.734C232.034 118.026 233.428 118.533 234.757 119.191L234.057 118.843C235.78 119.706 237.363 120.816 238.803 122.093L238.238 121.589C239.947 123.118 241.438 124.873 242.707 126.78L242.295 126.157C243.728 128.33 244.866 130.685 245.716 133.144L245.474 132.438C246.246 134.7 246.873 137.108 247.07 139.497L247.015 138.741C247.077 139.592 247.042 140.441 246.881 141.28L247.032 140.513C246.904 141.128 246.713 141.723 246.432 142.286L246.78 141.586C246.55 142.032 246.274 142.449 245.937 142.823L246.442 142.258C246.162 142.56 245.854 142.827 245.513 143.058L246.136 142.646C245.799 142.865 245.445 143.039 245.065 143.168L245.771 142.926C245.416 143.043 245.054 143.115 244.682 143.148L245.438 143.093C244.991 143.125 244.55 143.096 244.109 143.017L244.877 143.168C244.369 143.066 243.888 142.895 243.422 142.672L244.122 143.021C243.538 142.726 243.001 142.356 242.51 141.926L243.075 142.43C242.401 141.829 241.828 141.137 241.324 140.388L241.736 141.01C240.191 138.676 238.944 136.163 238.027 133.515L238.269 134.221C237.37 131.593 236.807 128.862 236.601 126.094L236.656 126.85C236.47 124.21 236.605 121.554 237.114 118.955L236.962 119.722C237.374 117.65 238.021 115.623 238.958 113.726L238.61 114.426C239.274 113.1 240.08 111.846 241.065 110.735L240.56 111.3C241.391 110.371 242.349 109.577 243.383 108.883L242.761 109.295C244.036 108.453 245.412 107.787 246.855 107.286L246.149 107.527C247.813 106.963 249.536 106.617 251.286 106.486L250.53 106.541C252.339 106.415 254.168 106.51 255.948 106.861L255.181 106.71C256.49 106.978 257.745 107.427 258.94 108.018L258.24 107.67C259.761 108.439 261.153 109.424 262.427 110.553L261.862 110.048C263.692 111.682 265.261 113.581 266.619 115.621L266.207 114.998C267.997 117.707 269.419 120.652 270.473 123.722L270.231 123.016C271.104 125.586 271.73 128.256 271.934 130.967L271.88 130.211C271.977 131.602 271.984 133.019 271.728 134.392L271.88 133.625C271.736 134.36 271.512 135.07 271.183 135.745L271.531 135.045C271.282 135.538 270.981 135.996 270.616 136.41L271.121 135.845C270.821 136.172 270.493 136.46 270.125 136.708L270.747 136.295C270.419 136.51 270.071 136.679 269.7 136.811L270.406 136.569C270.039 136.689 269.669 136.765 269.283 136.797L270.039 136.742C269.618 136.769 269.207 136.739 268.793 136.662L269.561 136.813C269.097 136.716 268.658 136.559 268.236 136.352L268.936 136.7C268.451 136.449 268.004 136.138 267.591 135.777L268.157 136.282C267.642 135.816 267.2 135.29 266.811 134.714L267.223 135.337C265.986 133.451 265.047 131.348 264.319 129.218L264.56 129.924C263.66 127.267 263.114 124.5 262.907 121.703L262.961 122.459C262.762 119.661 262.901 116.837 263.438 114.081L263.287 114.848C263.687 112.829 264.301 110.85 265.217 109.003L264.869 109.703C265.456 108.531 266.164 107.418 267.038 106.436L266.533 107.001C267.114 106.359 267.758 105.777 268.482 105.297L267.86 105.709C268.444 105.326 269.065 105.02 269.725 104.791L269.019 105.033C269.915 104.732 270.839 104.55 271.779 104.476L271.023 104.531C272.072 104.459 273.121 104.533 274.153 104.728L273.386 104.577C274.538 104.806 275.645 105.19 276.697 105.711L275.997 105.363C277.025 105.883 277.975 106.529 278.84 107.292L278.274 106.787C279.089 107.518 279.805 108.34 280.41 109.248L279.998 108.626C280.549 109.466 280.998 110.366 281.337 111.315C281.571 111.973 282.386 112.576 283.015 112.791C283.692 113.021 284.605 112.995 285.245 112.646C285.885 112.296 286.501 111.716 286.721 110.968C286.951 110.177 286.852 109.509 286.576 108.738C284.909 104.076 280.601 100.326 275.801 99.1699C273.337 98.5756 270.723 98.4548 268.27 99.1831C266.428 99.7295 264.75 100.608 263.347 101.938C260.58 104.567 258.884 108.194 258.003 111.865C256.939 116.292 256.793 120.844 257.458 125.346C257.807 127.724 258.441 130.028 259.253 132.286C260.066 134.545 261.156 136.798 262.565 138.782C263.975 140.765 266.366 142.313 268.907 142.565C270.155 142.688 271.397 142.427 272.548 141.95C273.699 141.474 274.715 140.575 275.535 139.592C277.136 137.68 277.704 135.023 277.76 132.589C277.81 130.454 277.569 128.287 277.14 126.195C276.202 121.639 274.416 117.159 271.952 113.214C269.487 109.269 266.213 105.371 261.991 103.087C260.899 102.495 259.768 101.954 258.58 101.578C257.33 101.18 256.019 100.936 254.718 100.791C252.066 100.49 249.29 100.666 246.698 101.304C242.028 102.451 237.705 105.035 234.984 109.061C232.694 112.454 231.477 116.486 230.969 120.518C230.409 124.964 230.819 129.614 232.072 133.908C232.791 136.379 233.739 138.791 234.967 141.056C236.297 143.501 237.858 146.061 240.289 147.551C242.643 148.998 245.421 149.38 247.992 148.274C250.252 147.299 251.933 145.028 252.493 142.666C252.875 141.045 252.93 139.518 252.738 137.864C252.594 136.642 252.345 135.426 252.054 134.231C251.468 131.827 250.645 129.454 249.58 127.22C247.682 123.237 244.987 119.718 241.621 116.87C238.888 114.556 235.594 112.829 232.072 112.136C228.865 111.505 225.36 111.773 222.54 113.557C221.095 114.469 219.913 115.495 218.806 116.798C217.912 117.852 217.257 119.057 216.685 120.309C215.671 122.527 215.21 125.058 215.152 127.488C215.101 129.626 215.311 131.821 215.873 133.888C216.072 134.626 216.445 135.281 217.092 135.721C217.692 136.127 218.603 136.346 219.316 136.167C220.769 135.803 222.023 134.298 221.595 132.723L221.597 132.717Z" fill="#FFE9E6"/>
<path d="M239.53 179.682L340.566 214.084L339.589 216.953C339.094 218.408 337.509 219.187 336.054 218.692L240.296 186.087C238.841 185.591 238.061 184.007 238.557 182.552L239.533 179.683L239.53 179.682Z" fill="#FFE9E6"/>
</svg>
