<svg width="96" height="36" viewBox="0 0 96 36" fill="none" xmlns="http://www.w3.org/2000/svg">
<rect width="96" height="36" rx="8" fill="#F4F5F9"/>
<path d="M17.209 19.7852C17.2207 18.2148 17.7012 17.7344 18.5098 17.2422C18.9961 16.9492 19.3652 16.4805 19.3652 15.8242C19.3652 15.0273 18.7441 14.5176 17.9707 14.5234C17.3027 14.5176 16.6289 14.916 16.5645 15.8828H15.498C15.5566 14.459 16.6289 13.6328 17.9707 13.6328C19.4414 13.6328 20.3965 14.5762 20.3965 15.8711C20.3965 16.791 19.9629 17.4297 19.2363 17.875C18.5039 18.3203 18.2402 18.7715 18.2168 19.7852V19.8438H17.209V19.7852ZM16.998 21.543C16.9863 21.1328 17.3379 20.793 17.748 20.793C18.1641 20.793 18.5039 21.1328 18.498 21.543C18.5039 21.959 18.1641 22.2988 17.748 22.3047C17.3379 22.2988 16.9863 21.959 16.998 21.543Z" fill="#090909"/>
<circle cx="18" cy="18" r="7" stroke="#090909"/>
<path d="M42.6265 17.7852V18.7373H37.3384V21.4033H36.1812V18.7373H30.7026V17.7852H42.6265ZM32.0503 14.123C32.043 12.5044 33.8667 11.5083 36.6499 11.501C39.4331 11.5083 41.2349 12.5044 41.2349 14.123C41.2349 15.7271 39.4331 16.7231 36.6499 16.7158C33.8667 16.7231 32.043 15.7271 32.0503 14.123ZM32.2407 23.9082V20.0996H33.3979V22.9268H41.2935V23.9082H32.2407ZM33.2808 14.123C33.2661 15.1338 34.6211 15.7783 36.6499 15.7783C38.6714 15.7783 40.019 15.1338 40.019 14.123C40.019 13.083 38.6714 12.4458 36.6499 12.4385C34.6211 12.4458 33.2661 13.083 33.2808 14.123ZM55.561 17.6094V18.5322H43.6812V17.6094H49.0571V16.0859H45.1899V11.7793H54.0815V12.7021H46.3179V15.1484H54.1694V16.0859H50.1704V17.6094H55.561ZM45.1167 21.8281C45.1094 20.3413 46.8013 19.4917 49.6138 19.4844C52.4043 19.4917 54.0815 20.3413 54.0962 21.8281C54.0815 23.3296 52.4043 24.1719 49.6138 24.1865C46.8013 24.1719 45.1094 23.3296 45.1167 21.8281ZM46.2886 21.8281C46.2739 22.7437 47.5264 23.271 49.6138 23.2637C51.6792 23.271 52.9316 22.7437 52.939 21.8281C52.9316 20.9272 51.6792 20.3926 49.6138 20.3926C47.5264 20.3926 46.2739 20.9272 46.2886 21.8281ZM66.4155 19.3525C69.0889 19.3525 70.7075 20.2314 70.7075 21.7549C70.7075 23.293 69.0889 24.1719 66.4155 24.1865C63.7349 24.1719 62.1016 23.293 62.0942 21.7549C62.1016 20.2314 63.7349 19.3525 66.4155 19.3525ZM60.9663 17.9902V11.9844H62.0942V13.9766H65.8882V11.9844H67.0308V17.9902H60.9663ZM62.0942 17.0527H65.8882V14.8848H62.0942V17.0527ZM63.2515 21.7549C63.2368 22.6924 64.4526 23.249 66.4155 23.249C68.3857 23.249 69.5869 22.6924 69.5942 21.7549C69.5869 20.8247 68.3857 20.2754 66.4155 20.2607C64.4526 20.2754 63.2368 20.8247 63.2515 21.7549ZM69.4478 19.001V11.1641H70.5903V14.4453H72.5532V15.4268H70.5903V19.001H69.4478ZM75.1753 11.8379V13.8594H78.8081V11.8379H79.936V14.3721H83.0122V11.1641H84.1694V18.2832H83.0122V15.3389H79.936V17.7998H74.0327V11.8379H75.1753ZM75.1753 16.8623H78.8081V14.7676H75.1753V16.8623ZM75.7759 24.0107V18.9131H76.9331V20.5098H83.0122V18.9131H84.1548V24.0107H75.7759ZM76.9331 23.0586H83.0122V21.4326H76.9331V23.0586Z" fill="#090909"/>
</svg>
