<svg width="60" height="60" viewBox="0 0 60 60" fill="none" xmlns="http://www.w3.org/2000/svg">
<circle cx="30" cy="30" r="30" fill="white"/>
<g clip-path="url(#clip0_3641_4264)">
<path d="M10 28.7477C10 29.3047 10.0259 29.8553 10.0767 30.3995C10.9689 39.98 19.5475 47.4945 30 47.4945C41.0452 47.4945 50 39.1017 50 28.7477C50 28.3837 49.9889 28.0224 49.9667 27.6638C49.3676 17.814 40.6569 10 30 10C27.6739 10 25.4403 10.3722 23.3638 11.0566C20.3037 12.065 17.5847 13.7523 15.4103 15.9237C12.0552 19.2765 10 23.7869 10 28.7477Z" fill="#A7A7A7"/>
<path d="M11.7936 28.8689C13.4827 22.3436 19.8351 17.5383 27.135 17.5383C35.8458 17.5383 42.9072 24.3812 42.9072 32.8232V34.7153C42.9072 43.1572 37.3417 50.0001 27.135 50.0001C18.2551 49.9319 11.3628 43.1572 11.3628 34.7153V33.7497L11.3536 33.7697V29.4304C11.3536 29.1665 11.5339 28.9362 11.7936 28.8698V28.8689Z" fill="#FFE7E2"/>
<path d="M17.7596 35.7953C16.6551 35.7953 15.7598 34.8883 15.7598 33.7695C15.7598 32.6507 16.6551 31.7437 17.7596 31.7437C18.864 31.7437 19.7593 32.6507 19.7593 33.7695C19.7593 34.8883 18.864 35.7953 17.7596 35.7953Z" fill="#1C1C1C"/>
<path d="M25.3191 35.7953C24.2147 35.7953 23.3194 34.8883 23.3194 33.7695C23.3194 32.6507 24.2147 31.7437 25.3191 31.7437C26.4235 31.7437 27.3188 32.6507 27.3188 33.7695C27.3188 34.8883 26.4235 35.7953 25.3191 35.7953Z" fill="#1C1C1C"/>
<path d="M37.2536 34.7388C37.2536 32.208 39.3377 30.1565 41.9086 30.1565C44.4794 30.1565 46.5635 32.208 46.5635 34.7388C46.5635 37.2695 44.4794 39.321 41.9086 39.321C39.3377 39.321 37.2536 37.2695 37.2536 34.7388Z" fill="#FFE7E2"/>
<path d="M17.4339 35.0483H20.434C21.4001 35.0483 22.1841 35.8692 22.1841 36.8831C22.1841 37.896 21.401 38.7178 20.434 38.7178H17.4339C16.4678 38.7178 15.6838 37.8969 15.6838 36.8831C15.6838 35.8701 16.4669 35.0483 17.4339 35.0483Z" fill="#FFA894"/>
<path d="M44.54 29.971C42.9073 31.418 40.4555 31.398 38.2672 31.2078C35.7294 30.9875 33.1556 30.6353 30.8508 29.5669C27.6464 28.0816 25.214 25.3141 23.4491 22.2917C22.5588 20.7655 21.8007 19.1082 21.7046 17.3518L30.5179 14.6606L36.91 15.6117L41.1452 20.6836L43.2383 25.2804L44.5391 29.971H44.54Z" fill="#A7A7A7"/>
<path d="M11.2109 28.9781C16.1275 27.9333 20.4487 23.8125 22.0693 18.6241L19.9217 17.4382L15.0171 20.7418L10.7496 26.6956L11.2109 28.9772V28.9781Z" fill="#A7A7A7"/>
<path d="M33.382 31.1194C39.7629 33.0579 46.2364 31.5171 49.9668 27.6638C49.3677 17.814 40.6569 10 30.0001 10C27.674 10 25.4404 10.3722 23.3639 11.0566C22.7843 11.923 22.3248 12.8713 22.004 13.8933C19.8267 20.8364 24.9208 28.5493 33.382 31.1194Z" fill="#A7A7A7"/>
</g>
<defs>
<clipPath id="clip0_3641_4264">
<rect width="40" height="40" fill="white" transform="matrix(-1 0 0 1 50 10)"/>
</clipPath>
</defs>
</svg>
