<svg width="335" height="52" viewBox="0 0 335 52" fill="none" xmlns="http://www.w3.org/2000/svg">
<rect width="335" height="52" rx="8" fill="#FEE500"/>
<path fill-rule="evenodd" clip-rule="evenodd" d="M98.0001 16.6665C92.4769 16.6665 88 20.1254 88 24.3913C88 27.0444 89.7316 29.3832 92.3684 30.7743L91.2589 34.8271C91.1609 35.1852 91.5705 35.4707 91.885 35.2632L96.7482 32.0535C97.1586 32.0931 97.5757 32.1162 98.0001 32.1162C103.523 32.1162 108 28.6575 108 24.3913C108 20.1254 103.523 16.6665 98.0001 16.6665Z" fill="#161616"/>
<path d="M126.927 20.2383C126.918 25.0371 125.608 29.1592 119.755 32.0684L118.683 30.5918C121.434 29.2383 123.077 27.6475 124 25.7666L119.052 26.2324L118.806 24.5449L124.589 24.1846C124.791 23.4375 124.923 22.6553 124.984 21.8203H119.632V20.2383H126.927ZM129.159 34.5293V18.6738H131.11V24.8965H133.466V26.4961H131.11V34.5293H129.159ZM142.483 20.2383C142.475 25.0371 141.165 29.1592 135.312 32.0684L134.239 30.5918C136.99 29.2383 138.634 27.6475 139.557 25.7666L134.608 26.2324L134.362 24.5449L140.146 24.1846C140.348 23.4375 140.479 22.6553 140.541 21.8203H135.188V20.2383H142.483ZM144.716 34.5293V18.6738H146.667V24.8965H149.022V26.4961H146.667V34.5293H144.716ZM157.003 19.5703C160.413 19.5791 162.936 21.2754 162.927 23.8594C162.936 26.2412 160.888 27.832 157.97 28.1221V31.0312H164.298V32.6309H149.778V31.0312H156.036V28.1221C153.153 27.832 151.105 26.2412 151.114 23.8594C151.105 21.2754 153.619 19.5791 157.003 19.5703ZM153.03 23.8594C153.021 25.5732 154.683 26.6016 157.003 26.6016C159.358 26.6016 161.011 25.5732 161.011 23.8594C161.011 22.1982 159.358 21.1436 157.003 21.1523C154.683 21.1436 153.021 22.1982 153.03 23.8594ZM184.126 31.1016V32.7188H169.606V31.1016H175.864V28.5176H171.329V23.3145H180.47V21.3457H171.294V19.7637H182.403V24.8613H173.28V26.918H182.772V28.5176H177.798V31.1016H184.126ZM197.802 20.2207V22.0137C197.802 24.1406 197.802 26.3291 197.222 29.6777L195.235 29.502C195.851 26.3818 195.851 24.0791 195.851 22.0137V21.8027H186.692V20.2207H197.802ZM185.163 32.3848V30.7852H199.647V32.3848H185.163ZM213.956 18.6914V30.1699H211.987V18.6914H213.956ZM201.001 23.7012C201.001 21.3896 202.873 19.7373 205.29 19.7285C207.707 19.7373 209.57 21.3896 209.562 23.7012C209.57 26.0479 207.707 27.6914 205.29 27.6914C202.873 27.6914 201.001 26.0479 201.001 23.7012ZM202.917 23.7012C202.908 25.1074 203.928 25.9863 205.29 25.9863C206.617 25.9863 207.646 25.1074 207.646 23.7012C207.646 22.3301 206.617 21.4336 205.29 21.4336C203.928 21.4336 202.908 22.3301 202.917 23.7012ZM203.444 34.248V29.0098H205.413V32.666H214.396V34.248H203.444ZM228.722 18.6738V25.002H231.165V26.6191H228.722V34.5645H226.788V18.6738H228.722ZM216.188 22.6816V21.1172H219.95V18.9023H221.901V21.1172H225.558V22.6816H216.188ZM216.927 27.4629C216.909 25.2656 218.614 23.71 220.935 23.7188C223.22 23.71 224.916 25.2656 224.925 27.4629C224.916 29.6514 223.22 31.1895 220.935 31.1895C218.614 31.1895 216.909 29.6514 216.927 27.4629ZM218.79 27.4629C218.781 28.7549 219.687 29.5811 220.935 29.5723C222.156 29.5811 223.044 28.7549 223.062 27.4629C223.044 26.1709 222.156 25.3184 220.935 25.3184C219.687 25.3184 218.781 26.1709 218.79 27.4629ZM245.104 18.6738V34.5645H243.136V18.6738H245.104ZM231.938 30.1875C236.104 28.21 238.021 25.5205 238.372 21.9082H232.747V20.3613H240.358C240.358 25.0898 238.521 29.1064 232.958 31.752L231.938 30.1875Z" fill="#161616"/>
</svg>
