<svg width="45" height="44" viewBox="0 0 45 44" fill="none" xmlns="http://www.w3.org/2000/svg">
<rect x="0.535889" width="44" height="44" rx="22" fill="#F4F5F9"/>
<path fill-rule="evenodd" clip-rule="evenodd" d="M17.9962 27.2952H10.8056L10.8205 13.5714C10.8208 13.2793 11.0579 13.0425 11.35 13.0425H23.7001C23.9922 13.0425 24.2287 13.2793 24.2284 13.5714L24.2244 17.254C25.2443 16.8375 26.3208 16.6239 27.4064 16.6239C28.6406 16.6239 29.8625 16.9 31.0022 17.4364C32.1419 17.9729 33.1771 18.7591 34.0488 19.7503C34.9205 20.7415 35.6115 21.9182 36.0824 23.2132C36.5533 24.5083 36.7949 25.8963 36.7934 27.2981L27.3948 27.2981H17.9962C17.9962 27.2971 17.9962 27.2962 17.9962 27.2952Z" fill="#707276"/>
<rect x="25.1931" y="19.6646" width="5.07044" height="1.60078" rx="0.800392" transform="rotate(-47.8453 25.1931 19.6646)" fill="#303031"/>
<rect x="28.7708" y="21.2231" width="5.07044" height="1.60078" rx="0.800392" transform="rotate(-47.8453 28.7708 21.2231)" fill="#303031"/>
<path d="M10.8188 27.2988H36.8105V28.9812C36.8105 29.2733 36.5737 29.5101 36.2816 29.5101H11.3478C11.0557 29.5101 10.8188 29.2733 10.8188 28.9812V27.2988Z" fill="#303031"/>
</svg>
