<svg width="120" height="120" viewBox="0 0 120 120" fill="none" xmlns="http://www.w3.org/2000/svg">
<path d="M22.0116 39.8182C21.8691 38.3065 23.0582 37 24.5766 37H37.2883C37.9777 37 38.6384 37.2763 39.1225 37.7672L40.6845 39.3508C41.9755 40.6597 43.7373 41.3965 45.5757 41.3965H89.6886C91.0099 41.3965 92.1169 42.396 92.2516 43.7104L96.4443 84.6466C96.8591 88.6966 93.6809 92.2168 89.6098 92.2168H30.078C28.3057 92.2168 26.8244 90.8685 26.658 89.1041L22.0116 39.8182Z" fill="url(#paint0_linear_2723_2230)"/>
<path d="M31.3895 48.9504C31.5848 47.2126 33.0544 45.8989 34.8031 45.8989H98.1577C100.207 45.8989 101.8 47.6814 101.571 49.7177L97.1384 89.1646C96.9431 90.9024 95.4735 92.2161 93.7248 92.2161H29.4094C27.8726 92.2161 26.6776 90.8793 26.8492 89.3521L31.3895 48.9504Z" fill="url(#paint1_linear_2723_2230)"/>
<defs>
<linearGradient id="paint0_linear_2723_2230" x1="59.2404" y1="37" x2="59.2404" y2="92.2168" gradientUnits="userSpaceOnUse">
<stop stop-color="#6DDDFF"/>
<stop offset="0.236545" stop-color="#00C3FF"/>
</linearGradient>
<linearGradient id="paint1_linear_2723_2230" x1="42.0699" y1="47.0012" x2="82.1397" y2="92.8373" gradientUnits="userSpaceOnUse">
<stop stop-color="#B1F1FF"/>
<stop offset="1" stop-color="#65DBFF"/>
</linearGradient>
</defs>
</svg>
