<svg width="315" height="24" viewBox="0 0 315 24" fill="none" xmlns="http://www.w3.org/2000/svg">
<path d="M154.609 18.1719C152.203 18.1719 150.633 16.4219 150.641 13.7969C150.633 11.1562 152.203 9.40625 154.609 9.40625C157 9.40625 158.562 11.1562 158.562 13.7969C158.562 16.4219 157 18.1719 154.609 18.1719ZM152.312 13.7969C152.312 15.4141 153.055 16.7812 154.609 16.7812C156.141 16.7812 156.875 15.4141 156.875 13.7969C156.875 12.1719 156.141 10.7891 154.609 10.7812C153.055 10.7891 152.312 12.1719 152.312 13.7969ZM160.203 18V9.51562H161.812V10.8594H161.906C162.219 9.95312 163.07 9.38281 164.062 9.39062C164.266 9.38281 164.594 9.40625 164.766 9.42188V11.0156C164.625 10.9844 164.234 10.9141 163.891 10.9219C162.734 10.9141 161.875 11.7188 161.875 12.8281V18H160.203Z" fill="#161616"/>
<path d="M0 12H134" stroke="#D5D5D7"/>
<path d="M181 12L315 12" stroke="#D5D5D7"/>
</svg>
