<svg width="60" height="60" viewBox="0 0 60 60" fill="none" xmlns="http://www.w3.org/2000/svg">
<circle cx="30" cy="30" r="30" transform="matrix(-1 0 0 1 60 0)" fill="white"/>
<g clip-path="url(#clip0_3691_3158)">
<path d="M10 28.7468C10 29.3038 10.0259 29.8544 10.0767 30.3986C10.2478 32.2297 10.6989 33.9862 11.3905 35.628C14.3166 42.5783 21.5453 47.4945 30 47.4945C33.148 47.4945 36.1277 46.812 38.7773 45.597C45.4227 42.5491 50 36.1494 50 28.7468C50 18.3928 41.0452 10 30 10C24.2458 10 19.0602 12.277 15.4103 15.9237C12.6589 18.6722 10.7821 22.2006 10.196 26.1167C10.1941 26.1203 10.1932 26.1249 10.1932 26.1294C10.0767 26.9103 10.012 27.7057 10.0018 28.5147C10.0009 28.5921 10 28.6695 10 28.7468Z" fill="#080808"/>
<path d="M12.2679 30.1365C11.8713 30.1602 11.5468 30.4532 11.4941 30.8409C11.4672 31.0439 11.4432 31.255 11.4229 31.4725C11.3794 31.9558 11.3619 32.4081 11.3619 32.8231V34.7152C11.3619 35.0219 11.3711 35.3258 11.3896 35.628C11.6179 39.4831 13.2913 42.9405 15.9179 45.4978C18.7506 48.2554 22.6945 49.9664 27.1341 50C32.1921 50 36.1102 48.3191 38.7764 45.597C40.4813 43.8551 41.6748 41.6864 42.3257 39.2592C42.7112 37.8231 42.9062 36.2978 42.9062 34.7152V32.8231C42.9062 32.1733 42.8637 31.5326 42.7833 30.9037C42.774 30.8291 42.6853 30.7936 42.6233 30.8382C41.4215 31.7183 39.9312 32.2388 38.3188 32.2388C35.0858 32.2388 32.3492 30.1475 31.4284 27.2634C31.4109 27.2097 31.3526 27.1815 31.299 27.2015C30.3911 27.541 29.4019 27.7266 28.3674 27.7266C26.2169 27.7266 24.2644 26.9239 22.8267 25.6171C22.468 25.2913 22.1417 24.9345 21.8523 24.5504C21.8126 24.4986 21.7349 24.4968 21.6942 24.5477C20.1392 26.4998 17.0883 29.6305 12.7477 30.0947C12.5868 30.112 12.426 30.1256 12.266 30.1347L12.2679 30.1365Z" fill="#FFDAD2"/>
<path d="M11.6033 30.1548C11.6449 30.1566 11.6865 30.1566 11.729 30.1566C15.3226 30.1566 20.3279 27.7276 21.7766 24.4477C23.2189 26.4289 25.6337 27.7276 28.3684 27.7276C29.4408 27.7276 30.4643 27.5283 31.399 27.1652C32.2874 30.1002 35.0499 32.2398 38.3199 32.2398C39.9942 32.2398 41.5363 31.6783 42.7612 30.7364C42.7409 30.588 42.7178 30.4397 42.6919 30.2922C41.9957 26.2424 39.6567 22.7322 36.3608 20.4251C35.7164 19.9737 35.0351 19.5678 34.3223 19.2138C32.1663 18.1426 29.7237 17.5383 27.1351 17.5383C25.1289 17.5383 23.2105 17.9015 21.4466 18.5631C21.1156 18.6869 20.7911 18.8206 20.4721 18.9653C15.8902 21.0376 12.5056 25.1821 11.6033 30.1548Z" fill="#FFDAD2"/>
<path d="M17.7596 35.7946C16.6551 35.7946 15.7598 34.8876 15.7598 33.7688C15.7598 32.6499 16.6551 31.7429 17.7596 31.7429C18.864 31.7429 19.7593 32.6499 19.7593 33.7688C19.7593 34.8876 18.864 35.7946 17.7596 35.7946Z" fill="#1C1C1C"/>
<path d="M25.3191 35.7946C24.2147 35.7946 23.3194 34.8876 23.3194 33.7688C23.3194 32.6499 24.2147 31.7429 25.3191 31.7429C26.4235 31.7429 27.3188 32.6499 27.3188 33.7688C27.3188 34.8876 26.4235 35.7946 25.3191 35.7946Z" fill="#1C1C1C"/>
<path d="M41.5877 30.1565H42.2294C44.623 30.1565 46.5635 32.0667 46.5635 34.423V35.0546C46.5635 37.4109 44.623 39.321 42.2294 39.321H41.5877C39.1941 39.321 37.2536 37.4109 37.2536 35.0546V34.423C37.2536 32.0667 39.1941 30.1565 41.5877 30.1565Z" fill="#FFDAD2"/>
<path d="M17.4339 35.0483H20.434C21.4001 35.0483 22.1841 35.8692 22.1841 36.8831C22.1841 37.896 21.401 38.7178 20.434 38.7178H17.4339C16.4678 38.7178 15.6838 37.8969 15.6838 36.8831C15.6838 35.8701 16.4669 35.0483 17.4339 35.0483Z" fill="#FFA894"/>
<path d="M31.3028 24.292C31.3157 25.0164 31.435 25.7145 31.6458 26.3707C32.6091 29.3648 35.4797 31.5117 38.8329 31.4553C39.5855 31.4425 40.3103 31.3197 40.9917 31.1022C41.3809 30.9784 41.6925 30.8428 41.8968 30.7472C41.8968 30.7472 42.6789 30.3796 43.3612 29.8372C45.1557 28.4101 45.8158 26.2187 45.8158 26.2187C46.2448 24.7762 46.2318 23.1517 45.6272 21.499C44.8672 19.4231 43.1264 17.8277 40.975 17.2052C39.3396 16.732 37.7485 16.792 36.3478 17.2562C35.6859 17.4746 35.0655 17.7831 34.5034 18.1662C32.5333 19.505 31.2602 21.7583 31.3037 24.292H31.3028Z" fill="#080808"/>
<path d="M10.0002 28.4302C10.0002 29.0017 10.0196 29.5669 10.0566 30.1257C10.3839 30.2558 10.7555 30.3286 11.1762 30.3368C11.2067 30.3387 11.2372 30.3387 11.2686 30.3387C13.9035 30.3387 18.7211 25.6708 19.7834 22.3909C19.9757 21.7975 20.082 21.1768 20.082 20.5371C20.082 19.0545 19.9101 17.673 19.5412 16.5063C19.4229 16.1313 19.2851 15.7791 19.1252 15.4524C18.4808 14.1373 19.1436 15.0101 17.7606 14.7917C14.8428 18.2782 10.0011 23.3383 10.0011 28.4311L10.0002 28.4302Z" fill="#080808"/>
<path d="M20.3712 20.1639C20.3712 21.7538 20.8899 23.2299 21.7765 24.4476C23.2187 26.4289 25.6335 27.7276 28.3682 27.7276C29.4407 27.7276 30.4641 27.5283 31.3988 27.1651C34.2334 26.0676 36.2525 23.4757 36.3607 20.4251C36.3644 20.3386 36.3662 20.2512 36.3662 20.1639C36.3662 19.5405 36.2867 18.9353 36.136 18.3564C35.2799 15.0528 32.1264 12.6011 28.3682 12.6011C24.9401 12.6011 22.015 14.6424 20.8788 17.5092C20.6929 17.9742 20.5561 18.4611 20.472 18.9653C20.4054 19.3557 20.3712 19.7562 20.3712 20.1639Z" fill="#080808"/>
<path d="M25.8867 30.4532C22.3085 30.4532 19.4077 27.5978 19.4077 24.0754C19.4077 20.553 22.3085 17.6975 25.8867 17.6975C29.465 17.6975 32.3657 20.553 32.3657 24.0754C32.3657 27.5978 29.465 30.4532 25.8867 30.4532Z" fill="#080808"/>
<path d="M25.9874 30.4504L33.8458 31.1621C34.1102 31.1866 34.4745 31.2067 34.9062 31.1803C37.1703 31.0438 38.7217 29.8133 38.9972 29.5885C41.142 27.8384 41.4545 25.4031 41.5091 24.8907L41.7744 22.0549L26.899 20.707L25.9883 30.4504H25.9874Z" fill="#080808"/>
<path d="M38.5536 31.4542C38.5536 31.4542 36.4633 31.3996 34.5255 31.1939C32.6682 30.9964 28.3156 28.106 28.3156 28.106L33.589 24.8179L41.4058 27.2824L38.5536 31.4542Z" fill="#080808"/>
<path d="M21.3022 17.2087L18.7552 19.0762L19.1906 22.5227L21.9863 22.8986L21.3022 17.2087Z" fill="#080808"/>
</g>
<defs>
<clipPath id="clip0_3691_3158">
<rect width="40" height="40" fill="white" transform="matrix(-1 0 0 1 50 10)"/>
</clipPath>
</defs>
</svg>
