<svg width="252" height="252" viewBox="0 0 252 252" fill="none" xmlns="http://www.w3.org/2000/svg">
<g clip-path="url(#clip0_464_6804)">
<path d="M65.5831 204.061V236.474H58.7859V212.809L50.1635 215.012L48.653 208.907V236.474H41.7928V211.865H31.66V236.474H24.7998V205.068H48.653V208.341L65.5831 204.061Z" fill="black"/>
<path d="M83.6665 236.529C75.0441 236.529 67.9951 229.543 67.9951 220.921C67.9951 212.298 75.0441 205.25 83.6665 205.25C92.2889 205.25 99.2749 212.298 99.2749 220.921C99.2749 229.543 92.2889 236.529 83.6665 236.529ZM83.6665 212.11C78.7574 212.11 74.8553 216.012 74.8553 220.921C74.8553 225.83 78.7574 229.732 83.6665 229.732C88.5756 229.732 92.4777 225.767 92.4777 220.921C92.4777 216.075 88.5126 212.11 83.6665 212.11Z" fill="black"/>
<path d="M113.968 229.479V236.276H100.472L104.64 211.772L101.101 211.8V205.192L105.814 205.227L106.793 199.01L113.451 200.164L108.493 229.374L113.968 229.479Z" fill="black"/>
<path d="M124.904 237.374L118.17 236.192L123.184 207.577L129.918 208.758L124.904 237.374ZM120.163 203.283V196.423H129.037V203.283H120.163Z" fill="black"/>
<path d="M160.136 205.227L154.577 238.032L131.164 207.962L136.514 203.808L150.444 221.675L153.5 203.766L160.136 205.227Z" fill="black"/>
<path d="M176.89 236.529C168.268 236.529 161.219 229.543 161.219 220.921C161.219 212.298 168.268 205.25 176.89 205.25C185.512 205.25 192.499 212.298 192.499 220.921C192.499 229.543 185.512 236.529 176.89 236.529ZM176.89 212.11C171.981 212.11 168.079 216.012 168.079 220.921C168.079 225.83 171.981 229.732 176.89 229.732C181.799 229.732 185.701 225.767 185.701 220.921C185.701 216.075 181.736 212.11 176.89 212.11Z" fill="black"/>
<path d="M210.562 236.529C201.94 236.529 194.891 229.543 194.891 220.921C194.891 212.298 201.94 205.25 210.562 205.25C219.184 205.25 226.17 212.298 226.17 220.921C226.17 229.543 219.184 236.529 210.562 236.529ZM210.562 212.11C205.653 212.11 201.751 216.012 201.751 220.921C201.751 225.83 205.653 229.732 210.562 229.732C215.471 229.732 219.373 225.767 219.373 220.921C219.373 216.075 215.408 212.11 210.562 212.11Z" fill="black"/>
<path d="M115.17 205.226H110.778V211.799H115.17V205.226Z" fill="black"/>
<path d="M175.954 99.9751L194.059 127.719C194.56 128.485 193.941 129.489 193.031 129.389L157.022 125.438C154.076 125.114 151.349 127.032 150.657 129.911L140.923 170.424C140.699 171.355 139.468 171.561 138.952 170.754L117.252 136.675C115.614 134.103 112.278 133.211 109.571 134.623L70.3797 155.066C69.5251 155.512 68.5593 154.708 68.8423 153.787L81.8576 111.616C82.6746 108.969 81.53 106.11 79.1089 104.758L35.3322 80.3111C33.7362 79.4333 34.3745 77.9194 35.6526 77.7027L84.8042 66.4153C87.6198 65.9097 89.6631 63.4517 89.6458 60.5931L89.3573 13.8819C89.3521 12.9256 90.4964 12.4303 91.1903 13.0899L119.735 40.2091C121.949 42.3114 125.404 42.3707 127.69 40.345L154.34 16.7235C154.982 16.1538 155.999 16.5192 156.13 17.3654L161.637 52.6021C162.085 55.4661 164.555 57.5751 167.458 57.567L203.107 57.4853C204.023 57.4833 204.528 58.5449 203.948 59.2542L176.329 93.0515C174.708 95.0338 174.559 97.8357 175.957 99.9765L175.954 99.9751Z" fill="#61A0FF"/>
<path d="M82.1639 166.062L52.0029 154.523C52.0029 154.523 55.9847 131.769 57.1315 124.155C58.7695 113.268 62.0812 86.7926 62.0812 86.7926L76.413 84.0096C76.3415 91.0779 77.8626 99.596 78.0033 104.079L87.7646 72.2085L100.413 75.6462L94.6885 108.107L109.125 76.7889L121.316 81.4361L111.226 113.825L127.072 90.5184L137.188 100.682L117.556 139.725L128.695 132.488L141.463 143.905L122.141 159.637L102.363 173.764L82.1639 166.065V166.062Z" fill="black"/>
</g>
<defs>
<clipPath id="clip0_464_6804">
<rect width="252" height="252" fill="white"/>
</clipPath>
</defs>
</svg>
