<svg width="335" height="52" viewBox="0 0 335 52" fill="none" xmlns="http://www.w3.org/2000/svg">
<rect width="335" height="52" rx="8" fill="#0E0E0E"/>
<rect width="20" height="20" transform="translate(88 16)" fill="black"/>
<path d="M105.734 31.3534C105.444 32.023 105.101 32.6394 104.703 33.2061C104.162 33.9787 103.718 34.5134 103.376 34.8104C102.846 35.2978 102.278 35.5474 101.67 35.5616C101.233 35.5616 100.707 35.4374 100.094 35.1854C99.4792 34.9346 98.9141 34.8104 98.3975 34.8104C97.8556 34.8104 97.2745 34.9346 96.6529 35.1854C96.0304 35.4374 95.5288 35.5687 95.1454 35.5818C94.5623 35.6066 93.981 35.3499 93.4008 34.8104C93.0305 34.4874 92.5673 33.9337 92.0125 33.1493C91.4171 32.3117 90.9277 31.3404 90.5442 30.233C90.1336 29.0369 89.9277 27.8787 89.9277 26.7573C89.9277 25.4728 90.2053 24.365 90.7612 23.4366C91.1981 22.6909 91.7794 22.1027 92.5069 21.6709C93.2344 21.239 94.0204 21.019 94.8669 21.0049C95.3301 21.0049 95.9375 21.1482 96.6923 21.4297C97.445 21.7123 97.9283 21.8555 98.1402 21.8555C98.2986 21.8555 98.8355 21.688 99.7456 21.354C100.606 21.0443 101.333 20.916 101.928 20.9666C103.54 21.0967 104.752 21.7324 105.558 22.8776C104.115 23.7514 103.402 24.9753 103.416 26.5454C103.429 27.7684 103.873 28.7861 104.745 29.5941C105.14 29.9692 105.581 30.259 106.072 30.4649C105.966 30.7737 105.853 31.0694 105.734 31.3534ZM102.035 16.8002C102.035 17.7587 101.685 18.6537 100.987 19.4821C100.145 20.4669 99.126 21.036 98.0211 20.9462C98.0071 20.8312 97.9989 20.7102 97.9989 20.583C97.9989 19.6628 98.3995 18.678 99.1109 17.8728C99.4661 17.4651 99.9178 17.1261 100.466 16.8557C101.012 16.5893 101.529 16.442 102.015 16.4167C102.03 16.5449 102.035 16.673 102.035 16.8002V16.8002Z" fill="white"/>
<path d="M122.113 18.8867C124.223 18.8779 125.594 21.0488 125.611 24.5469C125.594 28.0537 124.223 30.2334 122.113 30.2246C120.039 30.2334 118.686 28.0537 118.686 24.5469C118.686 21.0488 120.039 18.8779 122.113 18.8867ZM120.496 24.5469C120.487 27.0342 121.103 28.3701 122.113 28.3613C123.168 28.3701 123.792 27.0342 123.801 24.5469C123.792 22.0684 123.168 20.7236 122.113 20.7324C121.103 20.7236 120.487 22.0684 120.496 24.5469ZM126.824 32.791V17.9551H128.67V23.8086H130.357V17.6738H132.238V33.5645H130.357V25.4258H128.67V32.791H126.824ZM147.232 18.1309V19.6074H145.053V22.0156H147.145V23.4922H135.473V22.0156H137.564V19.6074H135.385V18.1309H147.232ZM134.084 26.041V24.4941H148.568V26.041H134.084ZM135.789 28.5371V27.1133H146.758V30.8926H137.723V31.9648H147.197V33.4238H135.807V29.5391H144.842V28.5371H135.789ZM139.516 22.0156H143.084V19.6074H139.516V22.0156ZM168.432 30.1016V31.7188H153.912V30.1016H160.17V27.5176H155.635V22.3145H164.775V20.3457H155.6V18.7637H166.709V23.8613H157.586V25.918H167.078V27.5176H162.104V30.1016H168.432ZM182.107 19.2207V21.0137C182.107 23.1406 182.107 25.3291 181.527 28.6777L179.541 28.502C180.156 25.3818 180.156 23.0791 180.156 21.0137V20.8027H170.998V19.2207H182.107ZM169.469 31.3848V29.7852H183.953V31.3848H169.469ZM198.262 17.6914V29.1699H196.293V17.6914H198.262ZM185.307 22.7012C185.307 20.3896 187.179 18.7373 189.596 18.7285C192.013 18.7373 193.876 20.3896 193.867 22.7012C193.876 25.0479 192.013 26.6914 189.596 26.6914C187.179 26.6914 185.307 25.0479 185.307 22.7012ZM187.223 22.7012C187.214 24.1074 188.233 24.9863 189.596 24.9863C190.923 24.9863 191.951 24.1074 191.951 22.7012C191.951 21.3301 190.923 20.4336 189.596 20.4336C188.233 20.4336 187.214 21.3301 187.223 22.7012ZM187.75 33.248V28.0098H189.719V31.666H198.701V33.248H187.75ZM213.027 17.6738V24.002H215.471V25.6191H213.027V33.5645H211.094V17.6738H213.027ZM200.494 21.6816V20.1172H204.256V17.9023H206.207V20.1172H209.863V21.6816H200.494ZM201.232 26.4629C201.215 24.2656 202.92 22.71 205.24 22.7188C207.525 22.71 209.222 24.2656 209.23 26.4629C209.222 28.6514 207.525 30.1895 205.24 30.1895C202.92 30.1895 201.215 28.6514 201.232 26.4629ZM203.096 26.4629C203.087 27.7549 203.992 28.5811 205.24 28.5723C206.462 28.5811 207.35 27.7549 207.367 26.4629C207.35 25.1709 206.462 24.3184 205.24 24.3184C203.992 24.3184 203.087 25.1709 203.096 26.4629ZM229.41 17.6738V33.5645H227.441V17.6738H229.41ZM216.244 29.1875C220.41 27.21 222.326 24.5205 222.678 20.9082H217.053V19.3613H224.664C224.664 24.0898 222.827 28.1064 217.264 30.752L216.244 29.1875Z" fill="#F5F5F5"/>
</svg>
