<svg width="164" height="164" viewBox="0 0 164 164" fill="none" xmlns="http://www.w3.org/2000/svg">
<rect x="0.5" y="0.5" width="163" height="163" rx="7.5" fill="#FBFCFC" stroke="#F4F5F9"/>
<path d="M57.8135 92.1641V97.3203H59.9961V98.2871H57.8135V105.216H56.6709V92.1641H57.8135ZM48.3066 101.949V93.4385H54.3857V94.3906H49.4492V100.982C51.8076 100.975 53.4702 100.873 55.4111 100.514L55.5576 101.51C53.5142 101.876 51.8076 101.949 49.332 101.949H48.3066ZM66.6318 92.457C69.4663 92.457 71.2241 93.3726 71.2314 94.9326C71.2241 96.4707 69.4663 97.3716 66.6318 97.3643C63.7974 97.3716 62.0176 96.4707 62.0176 94.9326C62.0176 93.3726 63.7974 92.457 66.6318 92.457ZM60.6992 99.4443V98.4922H72.5645V99.4443H60.6992ZM62.1494 105.011V100.733H71.1143V105.011H62.1494ZM63.2041 94.9326C63.1968 95.8774 64.5225 96.4487 66.6318 96.4561C68.7192 96.4487 70.0522 95.8774 70.0596 94.9326C70.0522 93.9585 68.7192 93.3799 66.6318 93.3799C64.5225 93.3799 63.1968 93.9585 63.2041 94.9326ZM63.292 104.073H69.9863V101.656H63.292V104.073ZM89.3369 98.7852V99.7373H84.0488V102.403H82.8916V99.7373H77.4131V98.7852H89.3369ZM78.7607 95.123C78.7534 93.5044 80.5771 92.5083 83.3604 92.501C86.1436 92.5083 87.9453 93.5044 87.9453 95.123C87.9453 96.7271 86.1436 97.7231 83.3604 97.7158C80.5771 97.7231 78.7534 96.7271 78.7607 95.123ZM78.9512 104.908V101.1H80.1084V103.927H88.0039V104.908H78.9512ZM79.9912 95.123C79.9766 96.1338 81.3315 96.7783 83.3604 96.7783C85.3818 96.7783 86.7295 96.1338 86.7295 95.123C86.7295 94.083 85.3818 93.4458 83.3604 93.4385C81.3315 93.4458 79.9766 94.083 79.9912 95.123ZM102.271 98.6094V99.5322H90.3916V98.6094H95.7676V97.0859H91.9004V92.7793H100.792V93.7021H93.0283V96.1484H100.88V97.0859H96.8809V98.6094H102.271ZM91.8271 102.828C91.8198 101.341 93.5117 100.492 96.3242 100.484C99.1147 100.492 100.792 101.341 100.807 102.828C100.792 104.33 99.1147 105.172 96.3242 105.187C93.5117 105.172 91.8198 104.33 91.8271 102.828ZM92.999 102.828C92.9844 103.744 94.2368 104.271 96.3242 104.264C98.3896 104.271 99.6421 103.744 99.6494 102.828C99.6421 101.927 98.3896 101.393 96.3242 101.393C94.2368 101.393 92.9844 101.927 92.999 102.828ZM115.221 99.0342V99.9717H103.355V99.0342H115.221ZM104.674 95.2109C104.674 93.5776 106.461 92.6182 109.288 92.6328C112.086 92.6182 113.88 93.5776 113.888 95.2109C113.88 96.8296 112.086 97.8037 109.288 97.8037C106.461 97.8037 104.674 96.8296 104.674 95.2109ZM104.894 104.908V101.114H106.051V103.941H113.902V104.908H104.894ZM105.86 95.2109C105.853 96.2437 107.186 96.8662 109.288 96.8662C111.375 96.8662 112.708 96.2437 112.716 95.2109C112.708 94.1929 111.375 93.5557 109.288 93.5557C107.186 93.5557 105.853 94.1929 105.86 95.2109ZM56.3267 114.75V115.307C56.3267 116.105 56.3267 117.453 55.9458 119.262L54.8179 119.115C55.1401 117.584 55.1914 116.471 55.1987 115.688H51.9175V114.75H56.3267ZM45.8237 121.312V120.36H51.4341V117.738H52.5767V120.36H57.6743V121.312H45.8237ZM46.8491 115.688V114.75H50.8188V115.189C50.8115 115.944 50.8115 117.35 50.2183 119.276L49.1196 119.115C49.5811 117.57 49.6763 116.442 49.6909 115.688H46.8491ZM47.1128 123.642V122.704H56.1948V127.113H55.0229V123.642H47.1128ZM67.02 116.215C67.0054 118.075 68.3311 119.708 70.2427 120.36L69.5981 121.254C68.1626 120.719 67.0347 119.657 66.4707 118.288C65.9141 119.848 64.7275 121.056 63.1528 121.649L62.5229 120.712C64.5298 120.009 65.8628 118.28 65.8774 116.259V114.911H67.02V116.215ZM64.647 124.726C64.6396 123.158 66.3022 122.257 69.0122 122.265C71.7148 122.257 73.3774 123.158 73.3774 124.726C73.3774 126.278 71.7148 127.157 69.0122 127.157C66.3022 127.157 64.6396 126.278 64.647 124.726ZM65.7896 124.726C65.7822 125.67 67.0127 126.242 69.0122 126.234C71.0044 126.242 72.2349 125.67 72.2349 124.726C72.2349 123.751 71.0044 123.173 69.0122 123.173C67.0127 123.173 65.7822 123.751 65.7896 124.726ZM69.2759 117.914V116.962H72.1763V114.164H73.3335V121.884H72.1763V117.914H69.2759ZM81.3901 122.396C84.1807 122.396 85.9531 123.275 85.9604 124.784C85.9531 126.278 84.1807 127.157 81.3901 127.157C78.5996 127.157 76.8271 126.278 76.8345 124.784C76.8271 123.275 78.5996 122.396 81.3901 122.396ZM75.5161 121.181V120.243H80.4233V117.724H81.5513V120.243H87.3667V121.181H75.5161ZM76.9224 115.775V114.838H85.8579V115.937C85.8506 116.991 85.8506 118.046 85.4917 119.394L84.3638 119.262C84.7153 117.921 84.7153 116.955 84.7153 115.937V115.775H76.9224ZM77.9771 124.784C77.9697 125.692 79.3174 126.249 81.3901 126.249C83.4702 126.249 84.8032 125.692 84.8179 124.784C84.8032 123.854 83.4702 123.283 81.3901 123.275C79.3174 123.283 77.9697 123.854 77.9771 124.784ZM94.9692 116.42V117.357H88.436V116.42H91.146V114.56H92.2886V116.42H94.9692ZM88.9048 121.195C88.9048 119.467 90.084 118.244 91.7026 118.236C93.3433 118.244 94.5151 119.467 94.5298 121.195C94.5151 122.946 93.3433 124.176 91.7026 124.184C90.084 124.176 88.9048 122.946 88.9048 121.195ZM89.9302 121.195C89.9302 122.353 90.6699 123.18 91.7026 123.173C92.7427 123.18 93.5044 122.353 93.5044 121.195C93.5044 120.053 92.7427 119.218 91.7026 119.203C90.6699 119.218 89.9302 120.053 89.9302 121.195ZM95.6431 126.542V114.486H96.7271V119.657H98.4556V114.164H99.5542V127.187H98.4556V120.609H96.7271V126.542H95.6431ZM113.353 124.55V125.517H101.429V124.55H104.388V121.042C103.275 120.463 102.601 119.525 102.601 118.339C102.601 116.325 104.579 114.999 107.362 114.984C110.145 114.999 112.123 116.325 112.123 118.339C112.123 119.503 111.471 120.426 110.394 121.005V124.55H113.353ZM103.714 118.339C103.707 119.796 105.223 120.771 107.362 120.771C109.479 120.771 111.009 119.796 111.009 118.339C111.009 116.881 109.479 115.922 107.362 115.937C105.223 115.922 103.707 116.881 103.714 118.339ZM105.516 124.55H109.237V121.452C108.673 121.598 108.043 121.679 107.362 121.679C106.695 121.679 106.073 121.605 105.516 121.459V124.55ZM116.502 115.395L116.4 123.012H115.169L115.067 115.395H116.502ZM114.847 125.136C114.833 124.623 115.272 124.198 115.785 124.198C116.305 124.198 116.729 124.623 116.722 125.136C116.729 125.656 116.305 126.081 115.785 126.088C115.272 126.081 114.833 125.656 114.847 125.136Z" fill="#9D9EA0"/>
<path fill-rule="evenodd" clip-rule="evenodd" d="M76.4024 41C73.4705 41 71.0936 43.3768 71.0936 46.3088V53.3288C69.1963 55.0069 68 57.4597 68 60.1918V70.5588C68 75.6174 72.1008 79.7181 77.1593 79.7181H85.1529C85.1789 79.7181 85.2048 79.718 85.2308 79.7178H90.5437C93.4757 79.7178 95.8525 77.3409 95.8525 74.409C95.8525 73.4221 95.5832 72.498 95.114 71.7064C95.5832 70.9148 95.8525 69.9907 95.8525 69.0038C95.8525 67.8203 95.4652 66.7272 94.8104 65.8444C95.4652 64.9616 95.8525 63.8685 95.8525 62.6849C95.8525 61.3025 95.324 60.0434 94.4581 59.0987C95.3192 58.2453 95.8525 57.0617 95.8525 55.7536C95.8525 53.1524 93.7438 51.0437 91.1426 51.0437L85.6078 51.0437C85.4571 51.0363 85.3054 51.0326 85.1529 51.0326H81.7112V46.3088C81.7112 43.3768 79.3344 41 76.4024 41Z" fill="url(#paint0_linear_3294_3908)"/>
<path d="M92.5078 58.7159L84.5071 58.7159" stroke="url(#paint1_linear_3294_3908)" stroke-width="0.603759" stroke-miterlimit="10" stroke-linecap="round"/>
<path d="M92.5078 65.5424L84.5071 65.5424" stroke="url(#paint2_linear_3294_3908)" stroke-width="0.603759" stroke-miterlimit="10" stroke-linecap="round"/>
<path d="M92.7861 71.2551L84.7854 71.2551" stroke="url(#paint3_linear_3294_3908)" stroke-width="0.603759" stroke-miterlimit="10" stroke-linecap="round"/>
<defs>
<linearGradient id="paint0_linear_3294_3908" x1="79.1236" y1="47.6869" x2="93.3036" y2="67.2169" gradientUnits="userSpaceOnUse">
<stop stop-color="#FFDED8"/>
<stop offset="1" stop-color="#FFF3F1"/>
</linearGradient>
<linearGradient id="paint1_linear_3294_3908" x1="92.5078" y1="59.2159" x2="84.5071" y2="59.2159" gradientUnits="userSpaceOnUse">
<stop stop-color="#FFB8A8" stop-opacity="0.07"/>
<stop offset="1" stop-color="#FFB8A8" stop-opacity="0.63"/>
</linearGradient>
<linearGradient id="paint2_linear_3294_3908" x1="92.5078" y1="66.0424" x2="84.5071" y2="66.0424" gradientUnits="userSpaceOnUse">
<stop stop-color="#FFB8A8" stop-opacity="0.07"/>
<stop offset="1" stop-color="#FFB8A8" stop-opacity="0.63"/>
</linearGradient>
<linearGradient id="paint3_linear_3294_3908" x1="92.7861" y1="71.7551" x2="84.7854" y2="71.7551" gradientUnits="userSpaceOnUse">
<stop stop-color="#FFB8A8" stop-opacity="0.07"/>
<stop offset="1" stop-color="#FFB8A8" stop-opacity="0.63"/>
</linearGradient>
</defs>
</svg>
