<svg width="221" height="158" viewBox="0 0 221 158" fill="none" xmlns="http://www.w3.org/2000/svg">
<path d="M51.6837 101.939C57.5232 121.232 71.0554 126.49 77.6071 124.507L177.425 94.2941L155.223 20.9441C155.065 20.4227 154.553 20.1199 154.088 20.2606L82.7105 41.8653C82.2344 42.0094 81.9873 42.542 82.1451 43.0635L87.1029 59.4428C87.3122 60.1343 86.9702 60.8441 86.3468 61.0328L67.8024 66.6458C53.8261 70.8762 47.0131 86.5494 51.6689 101.931L51.6837 101.939Z" fill="url(#paint0_linear_3722_3202)"/>
<path d="M77.085 124.665L77.9839 127.635C78.4814 129.278 80.1297 130.227 81.6712 129.761L176.445 101.074C177.986 100.608 178.832 98.9042 178.334 97.2606L177.435 94.2908L77.085 124.665Z" fill="url(#paint1_linear_3722_3202)"/>
<path d="M42.3742 80.7897C43.7188 79.5908 45.3447 78.7893 47.0927 78.3098C46.6476 73.9776 47.906 69.5505 51.3381 66.5814C54.5053 63.8409 58.8916 62.7978 63.2848 62.7178C63.5412 60.9079 64.2277 59.1287 65.4454 57.5103C67.2274 55.1397 69.9567 53.3237 72.8591 52.6926C76.4135 51.9261 79.7052 52.7858 82.636 54.9056C83.5542 55.568 83.4331 57.0895 82.7453 57.8421C81.9104 58.763 80.7121 58.606 79.8087 57.9515C76.7052 55.7108 72.5028 56.3393 69.7832 58.8825C68.5213 60.0687 67.801 61.4499 67.5051 62.9253C68.9019 63.084 70.2592 63.3166 71.5213 63.6028C75.0023 64.3928 78.4519 65.774 81.3768 67.8336C84.0665 69.7293 86.9743 72.6726 86.8231 76.2201C86.6691 80.0036 83.2536 81.4334 79.9204 81.2544C76.2469 81.0547 72.9794 79.4576 70.0768 77.2675C66.7708 74.7664 64.1954 70.9182 63.4051 66.8761C61.673 66.9178 59.9652 67.1625 58.3749 67.6315C56.0398 68.3383 53.9063 69.3429 52.5809 71.464C51.3888 73.3715 50.9836 75.5482 51.1546 77.7485C54.638 77.6469 58.2392 78.4253 61.1222 79.5696C64.1277 80.751 66.7834 82.657 68.7692 85.2112C71.012 88.0836 71.8539 92.2957 68.1748 94.4487C65.002 96.3123 60.7466 95.2122 57.7353 93.5623C54.7502 91.9169 52.3392 89.4295 50.3054 86.7166C49.3153 85.4077 48.5437 83.9213 47.984 82.3584C47.5725 82.4705 47.1679 82.6054 46.7883 82.7822C41.8662 85.0392 42.0778 91.2981 45.3852 94.8257C47.2118 96.7723 44.3993 99.8262 42.558 97.8716C38.1007 93.1205 37.1415 85.4546 42.3549 80.8079L42.3742 80.7897ZM69.553 70.9175C71.0374 73.0419 73.3364 74.7094 75.6306 75.871C76.6948 76.4027 77.8109 76.8197 78.99 76.9949C79.8592 77.1277 81.4071 77.3769 82.2079 76.8747C84.0303 75.7415 80.8374 72.6741 80.0178 71.9694C78.0854 70.327 75.6675 69.1657 73.2766 68.3798C71.543 67.8033 69.652 67.361 67.7264 67.0901C68.1051 68.4232 68.7322 69.7182 69.5609 70.9027L69.553 70.9175ZM61.1753 90.5784C62.4051 91.0847 67.4192 92.116 66.5254 89.3674C65.8522 87.3068 63.5574 85.4895 61.7694 84.4469C59.4577 83.1049 56.8184 82.3571 54.1578 82.1106C53.5598 82.0565 52.9392 82.0093 52.288 81.9837C54.0226 85.7523 57.5746 89.1069 61.1753 90.5784Z" fill="#FFC9C7"/>
<defs>
<linearGradient id="paint0_linear_3722_3202" x1="96.2787" y1="37.7585" x2="177" y2="111" gradientUnits="userSpaceOnUse">
<stop offset="0.055" stop-color="#FF736B"/>
<stop offset="0.350281" stop-color="#FF6259"/>
<stop offset="1" stop-color="#F44B41"/>
</linearGradient>
<linearGradient id="paint1_linear_3722_3202" x1="77.9839" y1="127.635" x2="110.141" y2="117.703" gradientUnits="userSpaceOnUse">
<stop stop-color="#FFBDBA"/>
<stop offset="1" stop-color="#FFCAC8"/>
</linearGradient>
</defs>
</svg>
